/* XPM */
static char *b1e913137d684e03ff82006dee6e56f6euywS8jDQTumtyxL[] = {
/* columns rows colors chars-per-pixel */
"50 50 54 1 ",
"  c None",
". c black",
"X c #010000",
"o c #000100",
"O c #010100",
"+ c #000001",
"@ c #010001",
"# c #000101",
"$ c #010101",
"% c #3D4040",
"& c #3C4140",
"* c #3D4140",
"= c #3C4041",
"- c #FE5622",
"; c #FF5622",
": c #FE5722",
"> c #FF5722",
", c #FE5623",
"< c #FF5623",
"1 c #FE5723",
"2 c #FF5723",
"3 c #F44236",
"4 c #F54236",
"5 c #F44336",
"6 c #F54336",
"7 c #F44237",
"8 c #F54237",
"9 c #F44337",
"0 c #F54337",
"q c gray62",
"w c #9F9E9E",
"e c #9E9F9E",
"r c #9F9F9E",
"t c #9E9E9F",
"y c #9F9E9F",
"u c #9E9F9F",
"i c #9F9F9F",
"p c #D0BED0",
"a c #D0BED1",
"s c #D0BFD1",
"d c #D1BFD1",
"f c #D1C8D0",
"g c #D1C9D0",
"h c #D0C8D1",
"j c #D0C9D1",
"k c #D1C9D1",
"l c #FEFEFE",
"z c #FFFEFE",
"x c #FEFFFE",
"c c #FFFFFE",
"v c #FEFEFF",
"b c #FFFEFF",
"n c #FEFFFF",
"m c white",
/* pixels */
"lllllllllllllllllltlllllllllllllllllllllllllllllll",
"llllllllillllltlllllllllilllllilllllllllllilllllll",
"llilllllllllllllllllllllllllllllllllllllllllllllll",
"lllllllll$$$$$$$$$$$$$$$$$$$$$$$$$$$$$$$$lllllllll",
"llllllll$$$$$$$$$$$$$$$$$$$$$$$$$$$$XX$$$$llllllil",
"llllllll$999999-<<:<<<<:<<<:<<<<<<<569939$llllllll",
"llllllll$933999-<:<<<:<:<<<:<::<:<<966339$llllllll",
"lillilll$339999<<<:<<<::<:<<:::<<<<966999$ltllllll",
"llllllll$999668<lll<llll:llll2llzl<535339$llllllil",
"llllllll$699986<:0l<<22l::::l222<z:555399$llllllll",
"llllllllX699869-9<l2llll:llll:<<<z-939399$llllllll",
"llilllilX9663399<:l22::l:::<l:<<<z-993339$llllilll",
"llllllllX696969<<:l<:::l<2::l<<:<l<996399$llllllll",
"llllllllX900003-<:l:llll<llll<<<<l:999396$llllllll",
"lllillilX660089-<<:2<:<<::<:<:<:<<-366999$lillllil",
"llllllll$988003-:<<2<<<222::<:::<<<986999$llllllll",
"llllllll$996399<<:<<<-pppp::<:::<<:599369Xllllllll",
"llllllll$666933-:<<<--<<<<::::<<<:<599399Xlllltlll",
"illlilll$933999<<<:<--pfpp<::<:<:-<999399$llllllll",
"llllllilX993339<:::<---<<<<:<:<:::<993339$lillllll",
"lillllll$999999<<:<<<<<<<<<<<<<<<<<999999$llllllil",
"llllllll$$$$$$$$$$$$$$$$$$$$$$$$$$$$$$$$$$llllllll",
"$$$$$$$$itiiiititittttirtteteittetttititit$$$$$$$$",
"llllllllitiitiiittirttti$$eetttttiiititittllllllll",
"llllllllliiiitiiiitittittttttiiitiiiiiitilllllllll",
"llllllllllllllll lllll&&%%&%llllllllllllllllllllll",
"llllllllllllllllllllllgjggggllllllllllllllllllllll",
"lllllllllllllllllllllliittti llllllttiietlllllllll",
"llllllllllllllllliiiittiitittitilllititiiillllllll",
"lllllllllllllllllllllllllllllllllllltitittilllllll",
"llllllllllllllllllllllllllllllllllllliitiillllllll",
"llllllllllllllllllllllllllllllllllllllllllllllllll",
"llllllllllllllllllllllllllllllllllllllllllllllllll",
"llllllllllllllllllllllllllllllllllllllllllllllllll",
"llllllllittitiiteitqttteititttqqttiiteewllllllllll",
"llllllllttititittwewttttettitqqqtttiqqwwilllllllll",
"llllllllzireteeeiteetitttewwewqqtieeqqerettlllllll",
"llllllllllrtttetrirrtttieteiewqetteeetiteiiillllll",
"llllllllllltteeetrterttteeteeqteteerwiwtertttlllll",
"lllllllllllzteeteettietieeeewwetireewqqtretitlllll",
"llllllllllllllllllllllllllllllllllllllllzzllllllll",
"llllllllllllllllllllllllllllllllllllllllzzllllllll",
"llllllllllllllllllllllllllllllllllllllllllllllllll",
"llllllllllllllllllllllllllllllllllllllllllllllllll",
"llllllllllllllllllllllllllllllllllllllllllllllllll",
"llllllllllllllllllllllllllllllllllllllllllllllllll",
"llllllllllllllllllllllllllllllllllllllllllllllllll",
"llllllllllllllllllllllllllllllllllllllllllllllllll",
"llllllllllllllllllllllllllllllllllllllllllllllllll",
"llllllllllllllllllllllllllllllllllllllllllllllllll"
};
