/* XPM */
static char *c68adf9c10284b9687ecad9d1ad8b84c4kNxH5YeahLS7Jtk[] = {
/* columns rows colors chars-per-pixel */
"50 75 13 1 ",
"  c #010000",
". c #FFC106",
"X c #FFC007",
"o c #FEC107",
"O c #FFEB3A",
"+ c #FFEA3B",
"@ c #FEEB3B",
"# c gray62",
"$ c #9E9E9F",
"% c #FFFFFE",
"& c #FFFEFF",
"* c #FEFFFF",
"= c white",
/* pixels */
"=====%==%==%===*====%=====%=&==&==&%=&%*=%*&=*&=*=",
"============%*=======%======*&==&==&=*&==&%*&%=&%=",
"==========%=&=*#======%=&=========%==%=&%=&%=&====",
"========%===*=%========%======*==*&=*&===%#&%*&%*=",
"======%===*&=*&====XXX....XX*======&==&%*&==&%=&==",
"=======#*&=*&====XXXX..........=*&=*&%=&%*&%=&%#==",
"========%=&==&%.XXXXXX..o...X.oX.=&=*=%*====%==%*&",
"=========%==....XXXX.@@@@@++@X.X....=*&==&%==%=&%=",
"=%==%====&=o..oX..+@@@O@@@@@@@@@@@....&&====*==*&%",
"*==*=====.XXXXXo@@@+@@+O@@@@@@@@@@@@....&=======*=",
"%#======......@@@@O@+@@+@@@@@@@@@@@@@@..=========*",
"=%*=%==X....X@@@O@@@@@@@+@@@@@@@@+@@+@+..X.======%",
"======XX....@@@@@@@+@@+@@+O@@@@@@@+@@+@@+XXX====*=",
"===%=XXX...+@@@@@+@@@@@@O@@O@@@@@@@+@@@@@@..======",
"=%*=XXXX.X@@+@@@O@+O@+O@+O@@@@@@@@@@@@@+@@@..===&%",
"*&=.XXXX@@@@@+@@+O@+@@@O@@O@@@@@@@+@@@@@+@@+.X===&",
"===..X.@+@@+O@@@@+@@@@@    @@@@@+O@@@@@O@+@@+..&=*",
"&%...XX@@+@@+O@+O@+O@+@    @@@@@@@O@@O@@@@@@@XX&==",
"*&.oX.@@@@@@@+@@@O@+@@  @@  @@@@O@@@@+@@@@@@@...=&",
"%o..XX@@@@@@O@@O@+O@@@  @@  @@@@@O@+O@@O@@@@+@...=",
"=.XXX@@@@@@@@@@@@@@@@  @@@@  @@@@+O@@@@@@@@@@+...=",
"=.XXX@@@@@@@@@@@@@@@@  @@@@  @@@O@+@@+@@@@@@@@+..=",
"=XXX@@@@@@@@@@@@@@@@  @@@@@@  @@@@@@@@@@@+@@@@@..+",
"XXXX@@@@@@@@@@@@@@@@  @@@@@@  @@@@@@@@@+@@@@@@@...",
"XX..@@@@@@@@@@@@@@@  @@@@@@@@  @@@@@@+O@+O@@@@+@..",
"X..@@@@@@@@@@@@@@@@ @@@@@@@@@  @+@@+@@@@@@@@+@@+..",
"ooo@@@@@@@@@@@@@@@  @@@@@@@@@@  @+O@+@@+@@@O@@@@@.",
"oXoX@@@@@@@@@@@@@@  @@@@@@@@@@  O@@O@@@@+@@@O@@O+.",
"ooXo@@@@@O@@@                        @@@@@@@+@@+@@",
"X..@@@@@@@O@@                        @@@@@+@@@@@+@",
"oo@@@@@@O@@@@@@@  @@@@@@@@@@@@@@  @@@@@@@@@@@@+@@+",
"oo@@@@@@@O@@@@@@  @@@@@@@@@@@@@@  @@@@@@@@@@@@@@@@",
"..@@@@@@                                 @@@@@@@@.",
".X@@@@@@                                 @@@@@@@@@",
"..X@@@@@@@@@@@  @@@@@@@@@@@@@@@@@@  @@@@@@@@@@@@@@",
"..X@@@@@@@@@@@  @@@@@@@@@@@@@@@@@@  @@@@@@+@@@@@@@",
"XX.@@@@@@@@@@  @@@@@@@@@@@@@@@@@@@@  @@@+@@+@@@@@@",
"XXX@@@@@@@@@@  @@@@@@@@@@@@@@@O@@@@  @@@@+@@@@@@@X",
"XXXX@@@@@@@@  @@@@@@@@@@@@@@@@@O@@@@  @@@@@@@@@@@.",
"=XXX@@@@@@@@  @@@@@@@@@@@@@@+O@@@@@@  @@+@@@@@@@@X",
"=X...@@@@@@@  @@@@@@@@@@@@+@@+O@@@@@  @@@@@@@@@@..",
"==XX.@@@@@    @@@@@@@@@@+O@@O@@O@@@@    @@@@@@@@..",
"==XXX@@@@@    @@@@@@@@@@@@@@+O@+@@@@    @@@@@@@@..",
"==XX.X@@@@@+@@@@@@@@@@@@@@@O@@@@@@@@@@@@@@@@@@@..=",
"===X..@@@+O@+@@+@@@O@@@@+@@+@@+@@@@@@@@+@@@@@@@.==",
"====X.X@@@@@@@O@@@@@@@@@@+O@+@@@@@@@@@O@@@@@@@.X==",
"====.X..@@@@O@@O@@O@@@@@@@+@@@@@@@@@@@@@@@@@@..===",
"=====.X.@@O@+@@@O@@@@@@@@@@@O@+@@@@@@O@@@@@.X.====",
"===#&%...@@@@+@@+@@@@@+O@@@@+@@@@@@@@@@@@@+...#%==",
"======....@@@@@@@@@@+@@+@@@@@+@@@@@+@@@@@@.o=%=&==",
"====%*&=...X@@@+@@@@@@@@@O@+@@@@@+@@@@@@...&*&%===",
"====&==&==X...@@+@@@@@+@@@@@@@@+@@@@@@@X..@==*====",
"=======*===..XX@@+@@@@@@@@@@@@@@@@@+@@...+==&%====",
"==*==*======.XXXX++@@@@@+O@+@@@+@+@.X.X@&===*&%===",
"====&=*=======XX....O@+@..++@@......X=#*===&==&%==",
"=======*========&.....o........@...&=*===&=*&%*===",
"&%*&==&====*===&%=#O=&O.....O@=========&%=&%==%*&=",
"===*&=*#=====&==&=====&%*==*&%*======&===%*&=*====",
"%*=%*==*===&%==%===*&%=====%=======&==&=*=%*=#====",
"&%#=%==%=&==&=*&=*=%==%*==*&%====&=====&=*=%*&==&=",
"*&=*&%*&%=&%==%*==*&%=======&%=&%*&=*==*&%=&%=&===",
"%=&===%*==*&%*&%*&%==%*&======%*==#====%=&=*&==&==",
"&=*&=*&%=&%*&%*==*&=*=====*=%=&%*&%====&%=========",
"=&===%*&=*&=*=%*&==&%*===&==&=*&=*&%==%=&%=&==&#==",
"=*==*&#==%==%*#%===*&=*=%=&==&%*&======%======*&%=",
"&==&=*&==&%====&%*&%==%=&%==%==%*&==&%*&=#&%*==*=%",
"*===&=*==*=%*&%*&=*==*&%*&=*==*=%*&=*&%=&=*&%=&%==",
"%*&%*&=====&%=&=====&%=&%=&====*&%*&%=&%=&%*=%=&%*",
"&=======*&==&====*&%*=%#&====*&===%*&%*==*&===%=&=",
"=&%=&==&=*=%==%*&=*&%=&=*==*=%=&========&%*=%*=%*&",
"==&=*&=*&===#===*=%==%=&==&===%=&=*=%*&%==%*=%*&==",
"=%*==============*===&=*&=*&#===*&%====&%*&%=&=*&%",
"*===&%=&%=&=*&%=&==&=*====%*&=*&%*=%==%#&======%=&",
"%*&%===*&%==%*==*&%==%============*&=*&%====&===%#",
"===#====*&%==%*==*=%#==*==*===&%====&=*=%*==*=%*&="
};
