/* XPM */
static char *_709d8b2ddcc4503b786aa72b069b76aul0o6ofOagI4OfbD[] = {
/* columns rows colors chars-per-pixel */
"50 75 6 1 ",
"  c black",
". c #9F9E9E",
"X c #9E9E9F",
"o c #FFFFFE",
"O c #FFFEFF",
"+ c #FEFFFF",
/* pixels */
"+++++++++++++O++O++++++o++o++++O++Oo+O+++o+O++O++O",
"++++++o++o++++Oo++++Oo+O++Oo++o+Oo+Oo+++++o+Oo++o+",
"+++++++o+O++Oo+.o++o++++O++++++++Oo+Oo+Oo+++++o+++",
"+++++o++o++o+Oo++++Oo+Oo++o++o+Oo++++Oo+O+.Oo+O++O",
"++++++++O++Oo++o+O++Oo+Oo++o++o++++++++++Oo+O+++o+",
"+++++++.+++++o++o+++++o++++O+.+++Oo+++++++Oo+O+.Oo",
"++++++++++++++o++++Oo++o++o++o++o+Oo+O++++++++Oo++",
"++++++++Oo++o+O++Oo+O+.+o++++++++o+O+++o++o+Oo++++",
"+o+++++o+Oo+Oo+Oo+O+++o+Oo+O+++++++++o++++++++o+Oo",
"+Oo+O++O++Oo+O+++o+Oo++o++++Oo++o+O+++o++++Oo+++++",
"o.+o++o+O+++++Oo++++O++++++++O+++++Oo++o+Oo+O++O++",
"++++++Oo+Oo+Oo+O+++o+O++++++++++++o++++O++++++o+++",
"++++Oo+Oo++++O+++++O+++++O++++++++O+++o.+++O++O++O",
"o+O++Oo+O.++o++o++++Oo+O++O+++++Oo+Oo++o++o++o+Oo+",
"+o+O++Oo.Oo++o++++Oo+Oo+Oo+O++++++o+++++++Oo+O+++o",
"+O++Oo+Oo++o++++O++O++Oo++o+++++o+Oo++o+Oo++o++o+O",
"o++o++++++++o+O+++o+Oo+    +++++O++Oo++++++++o++o+",
"Oo+Oo+Oo++o++o+O+++o+O+    ++++++.o+Oo++++.++Oo+O+",
"+Oo++o+Oo++o++o++++O++  ++  ++++++++++++O+++o++++O",
"++Oo+Oo+++++o++++Oo+++  ++  ++++O+++++O+++o+Oo+Oo+",
"O+++++Oo+++++++++++++  ++++  ++++Oo+O+++++Oo++++++",
"+++++o++o++o+++++++++  ++++  +++o+++++o++o++o++o+O",
"o+Oo++o+.+++++++++++  ++++++  ++Oo++o++o++++Oo+O++",
"+o+Oo+Oo++++++++++++  ++++++  ++++o++++O++Oo+O+++o",
"+O++Oo+O++O++++++++  ++++X+++  +++++++o++o+Oo+O++O",
"++O+++o++o+O+++++++  ++++++++  ++o+O++O+++o++o++o+",
"Oo++o+Oo+Oo+++++++  ++++++++++  ++o++++.o++o+Oo+Oo",
"++++O.++o+++++++++  ++++++++++  ++++++o+O+++++O+.+",
"+++o+Oo+O+++o++                    Oo++++O++Oo+O++",
"Oo++++Oo+O.++o+                    ++++O+++o+O++O+",
"+Oo+Oo+++++o+O++  ++X+++++++++++  +o++o+++++o+Oo+O",
"o++++O++Oo+O+++o  ++++++++++.+++  +Oo+O++O++++++o+",
"+++++++++++                            ++++++++++o",
"+++++++++++                            +O++Oo++o+O",
"++++++++++++++  ++++++++++++++o+++  +++++++++++Oo+",
"++++++++++++++  +++++++++++++++o++  ++++++Oo+.o+Oo",
"+Oo++.+++++++  +++++X++++++++o+++++  +++Oo++o++++O",
"+++++.+++++++  ++++++++++++++++++++  ++++Oo+Oo+O++",
"+++O++++++++  ++++++++++++++o+Oo++++  ++++++++o+++",
"+O++++++++++  ++++++++++++++O++O++++  ++Oo++++++++",
"o+Oo+Oo++++   ++++++++++++Oo+Oo+++++   +++++++++o+",
"Oo++o+O+++    ++++++++++.++O++Oo++++    ++++++++O+",
"+Oo++o++++    ++++++o++o+++++o++++++    ++++++O+++",
"++O++++++++++++++++++o++o++++O+++++++++o++++O++Oo+",
"O+++o+++++++O++O++++++o++o++o++++++++++++++++++++o",
"+++++o++o++++O++++++o+++++++++++++++++++++++++++++",
"+++++O++Oo+Oo+O++Oo+++++o++o++++++++++++++++++++++",
"O+++++Oo++o++o.+o+++++++++++++++++++++++++++++++++",
"++o.+o+Oo+++++o+O++O+++o+O++O+++++++++++Oo++++.o++",
"++Oo+Oo++o+Oo+O+++o++o+Oo+O++++++o.++++++Oo++o++++",
"O++Oo+Oo+O+++o+O+++o++o++o++o+++++++O++++++o+Oo+++",
"+Oo++o+Oo++++Oo++o++o+O++.++Oo+++++++Oo+++++++++++",
"o++o+Oo+Oo+Oo+O++++++o++o++o++++Oo++o++++Oo+O+++++",
"+o++++Oo++++Oo+O++++++++Oo++++O+++o+Oo+O++++++o++o",
"+O+++o+Oo+Oo+Oo++++Oo++++O++++++o++o+O.+O++O+++o++",
"+++++Oo++o+++++o+++++++O+++++++++o++++O+++++O++O++",
"++++++Oo++o+Oo+O++.o++o+O++Oo++o++o+O+++++O+++++++",
"+++++++.o+O+++o+O+++++O++O++Oo+Oo+O++O+++++++++++O",
"+++++O+++++Oo++o+Oo+++++o++o+Oo++o+O+++o+O++O.++++",
"++.Oo++o++o+Oo+Oo+Oo++o++o++++++++o+Oo+++++++O++Oo",
"++o++++Oo++++++++o+O+++o+Oo+Oo++++Oo+Oo++o+O+++++O",
"o++++O+++o++o+O+++o++o+O++O++O++Oo.+o++o+O+++o+O++",
"++++o++o++o+Oo+Oo+++++o+O++Oo+Oo++++O+++o++++Oo+Oo",
"+Oo++++Oo++o++o+++++o++++O++O++++++o+++++o++o++.+O",
"o++o+O.++o++o+.++Oo+++++++O++Oo+O++O+++++O++++++++",
"++++o++++O++Oo++o++++O++O++Oo++++++++++Oo.+o+O++O+",
"++o++o++++Oo+Oo++o+O++O++O++Oo+Oo++o+Oo++o+O++++++",
"+++o++++O++++++++O++++++++Oo+O+++o+++++++Oo+Oo+O++",
"O+++o+O+++o++++O+++o++o.Oo+O+++o+O++++++++Oo++o+++",
"++++++++o+O++Oo++++O++O++Oo+O++Oo+Oo+Oo+O++Oo++o+O",
"++O++O+++o+O.++o++o+O+++o+Oo+Oo+O+++o+O++Oo+O++Oo+",
"+o+O++Oo+O++++++o+Oo++o+++++.+Oo+O+++o+Oo+O++Oo+O+",
"+O++O++O+++o+++++o++++++++++Oo++o++++O+.+o+Oo+O+++",
"+++++++++o++++++++o+++++o+O++Oo+O++O++Oo+O++Oo++o.",
"+o+.o+O++Oo+O+++++++.Oo++++Oo+++++++++++o++o++++Oo"
};
