/* XPM */
static char *_1ecb9aa07b74b16d8ad5e30a07db6f6rwaccRDadt0WlDJc[] = {
/* columns rows colors chars-per-pixel */
"50 75 24 1 ",
"  c #010000",
". c #000100",
"X c #000001",
"o c #202121",
"O c gray13",
"+ c #1A227E",
"@ c #1A237E",
"# c #1B237E",
"$ c #1A237F",
"% c #795549",
"& c #D40000",
"* c #EE5350",
"= c #EF5350",
"- c #EF5351",
"; c #FE8A65",
": c #FF8A65",
"> c #663AB7",
", c #673BB7",
"< c gray62",
"1 c #9F9E9E",
"2 c #E3F2FD",
"3 c #FFFFFE",
"4 c #FFFEFF",
"5 c #FEFFFF",
/* pixels */
"55554555555555355             55555555554354554355",
"5555555543553553               5555551555435535555",
"555555555435555                5555555555555545513",
"55555515554355                  555555554355355554",
"5555555555555                     5555555555155535",
"5555555555555                     5555553543545553",
"555555555555      >, >>>,,,        555554554555355",
"555555555555    ,,, ,> > ,   ,     455555435555555",
"55555555555    >   >   , ,    ,     55555555553553",
"5555555555       > , >        ,     55555555554555",
"5555555555     > ,     ,   X        55555555535535",
"5555555555      > ,     ,      >    55555155543513",
"5515555555   >  > > >   , ,,   ,    55555555555555",
"5555515555   >  > % ,::>; ,;;, ,    55555555555455",
"5555555555    ,,==**------;;;; ,    55555555555545",
"555555555     >>=**-------;;;;  >>  55555555555555",
"554554555   >     ---***----;; ,>>  55535435455535",
"555535555   > >    --***--- ;  ,>>  45553555555553",
"555555545   > >           X    ,,   55354314554355",
"555351355   >                .,,,>  55455535535435",
"435435455   ,> >              ,, >  55553555543543",
"5455535455   , >,         X   >     55354555354355",
"5545545555   > ,,       X     ,    555435455535535",
"41145555555    >,           >,,    555553555543553",
"54555555555   ,,,,,      . , , ,   555555555555314",
"555355555555     ,>>   . -  ,, ,  5555155555555535",
"455555555555      ,  -----;  ,.X  5555555555553553",
"54355515555         ,;--;;   , .    55555555555554",
"5545555555                   .X       555555555555",
"435555555             X .  .  .         5555555543",
"513553555                      .        5554354555",
"5555555                   .  .X          435455455",
"555555.X        X .  .  .X  X  X          55555555",
"55555           .X .X       .  .          55555555",
"55555    X       .X .   X    .             5555555",
"55555           X       .X  X  X            555555",
"5555.  .        .X     X .X                  55555",
"5555  X  X       .   X    .X .X       .X     55555",
"555    X  X       .  .   X  X  X   5          5555",
"555  X          .  .X  X .X    .   5          5555",
"555      X  55   .  .  .  .X  X    55         5555",
"555       X 55  X .  .X            5          5555",
"555     X  X55      X  X     X o             55555",
"5555         5   .Xo      .   oo            555555",
"55555     X    .  .o .     .  oo           5555555",
"555555        X   o.X .X       o           5555555",
"5555555 .      X .o  X       . oo        555555555",
"5555555     .   oo X .        . o        555551555",
"55555354       oo                o     55554555555",
"5515545555                         555555535555555",
"55553543555552                     555543545545555",
"55554554555555              .      555354554355355",
"55555535555555                     531535455555535",
"55555555555555  #$$$$$$ $$ $$$#$$$ 553543555513555",
"55555555555155  $#$$$$$ $$ $$$$#$$ 555354555555555",
"55535535555555  $$$$$$$ $$  $$$$$   55535455535555",
"55515553555555 $@@@@@@$$ $ #+@@@$$  55551555545543",
"55355555555555 $@@@@@@$$   #+@@@$$  55555554555355",
"35555555555555 $@@@@@$$   ##++@@$$  55555435455155",
"53553555555555 $@@@@@@$   ##$+@@$$  55555553555553",
"5555555555555  $##+@$$$   $$+@@@$$$ 55555554354355",
"3555555555555  $##@@$$$   $$+#@@$$$ 55555455435535",
"5555555555555  $##$$$$  55 $$##$$$$ 55555545553555",
"5535555555555  $$##$$$  55 $#$##$$$ 55554154355355",
"3555545555555 $$$###$$  55 $$$$$$$$ 55555555455435",
"5551554555555 #$$$#$$$  555$$$$$$$$ 55555555555545",
"5535435155555 $$###$$$  555$+#$#$$$ 55555555355554",
"3555543555555 $$##$$$  5555 +$##$$  55555555531555",
"5355554555555 $$##$$$  5555 #@@@$$  55555555555555",
"5555435455555 $$#$$$$ 55555 +@@@$$$ 55555555555555",
"3543543555555 $$+@@$$ 55555 $$@@$$   5555555555555",
"43553555555    $++ $$ 55515       $   555555555555",
"553155553            $55555$     &&& & 55555555555",
"35435535  &&&&&&&&&  5555555 &&&&&&&&& 55555515555",
"53545553             5555555           55555555555"
};
