/* XPM */
static char *_eb99f69f40f4099a8cadc136f53193fUEwMsW2DW1WTJ6Wq[] = {
/* columns rows colors chars-per-pixel */
"50 75 28 1 ",
"  c black",
". c #010000",
"X c #000100",
"o c #000001",
"O c #FF5622",
"+ c #FF5723",
"@ c #F44236",
"# c #F44336",
"$ c #F54336",
"% c #F44337",
"& c #311A92",
"* c #301B92",
"= c #311B93",
"- c #4A148C",
"; c #4B148C",
": c #4A158C",
"> c #9C26B0",
", c #9C27B0",
"< c #9D27B0",
"1 c #9C27B1",
"2 c gray62",
"3 c #9F9E9E",
"4 c #B388FE",
"5 c #B388FF",
"6 c #B389FF",
"7 c #FFFFFE",
"8 c #FFFEFF",
"9 c #FEFFFF",
/* pixels */
"99999999993999999999999998993998999999799998998998",
"99999999999999999999979999999999879979999899979999",
"99999939999989999997989989999987989937999987999987",
"93999999999999993999999798999998998999792999998799",
"99999999999999979999999973999879999879979999999922",
"93999993987987987997999997999987997989989987989989",
"99999993798998799799799798798799939798798799998798",
"99999999879999979999999999879979879979979979979829",
"89997399987993999999999999999999989389997987989999",
"98799998798999999999999799999999799799999993998999",
"79899979979999899999999999999999879979979999999979",
"97997997999997999939999999999999987987987997997987",
"99999798999799999999999993999999798799793798999928",
"99899939979399899999999999999999973879879899999979",
"87989999987987999999999999999999997997989989989999",
"9999999879879979999          999798999999799398799",
"998998799999999                   9999999999999979",
"879899899999                       O  999999999997",
"999987989                               ;999999999",
"73879979X          *                     ;99999979",
"9999999  X        ==== = *               OO;999989",
"99998           == === <<1 &<              OO99999",
"999           =*=:; :: ;;;<1<1   *1*         O9979",
"99            <<:<<<<;  *;; ;1 11 1**          997",
"9 ;          X < :: ;;; ; ;; ;1< *1*  *       +  9",
"9      <<< <1<<    66666;;665;1< <<1<<<<       +9 ",
"9     1   <<<1< ;666666666656<1    ; 1 <        O9",
"9       <<<; ;;;666666      66<1<<<<<1<          9",
"$$    1 <;;; ;;6 666  .      6661<        1      O",
"$ 11<111    ;1                  < ;;1<<<1111      ",
" 1     ;;  <1 6                    ;11111<<<     $",
" 1   11<<1< ;                      1;  1   1      ",
"     <   <1; 6 6                 <111<;  <<<< <<<<",
"%X   =   <11<666                 <<   <          <",
"%      <<;;;111 66               111<     =       ",
"%% X        <<< 1 666     <<6666<<1;<<            ",
"9          ;;<; ;< <666666 6<<<<   <1             ",
"9+               <;<  1 6666< ;;<<<  <           +",
"99+            <<; <1;;<   1     < < <          ++",
"99+;         <<    ;1  111 1     <<             +9",
"9999                    1  1                    99",
"93999O;                 1                    OO999",
"9999999O9                                   999999",
"99999999+OO                     X  X    OO99999999",
"99999999999OO9$$   $             %$O  $O9999999999",
"999999999999   $$$$$% %%$$ $$$$@%%$$%$999999999399",
"799999999999999999999 %   $$$ 99999999999999999999",
"99999939999999999999999999999987999999999999999999",
"99999798799939799799998998999999998998798998798999",
"79979999899979999999879879899379979873979899999999",
"97399989999999987987987989987987989997997983997999",
"99799998999998998799799998798799799999798999999799",
"79899879979879979879999999899899899879899979879399",
"99997983987997989997297997989997989999987987989999",
"99799799798799999999998999999999999798999998999799",
"79999899899979999999879979999979879999999899999999",
"89999999997997997987997999989999939997987997999999",
"99799799799999998799998999999799798998999998799999",
"79979879879899999999879899979899899879999999999899",
"87989987989999999987987999999989999999999989989999",
"98998998999939799999999999998998998999799998999999",
"99979879999999999979993899979979879979999999999999",
"89937997997997987987999997989999987999999993999999",
"98799999799998998999999799798998938999799999999999",
"79899999879999979999979999899999899979999899879979",
"87999989999989989987987997989997987999999997989997",
"99999999793999799999798999798799999999799798798799",
"79899979899879999879879999899879979979979999899899",
"87999987999997997999997937989987999999989989989999",
"99999799798798998798998799999798992998799998999999",
"99879999899979979999899999979879979979899979979879",
"97999999989999989989987997989997997989989989993989",
"98998999798798798998998999799799999998799999999999",
"79979979879979979979979999899879879899879999899979",
"99989989987989989987997987997999997997987989987999"
};
