/* XPM */
static char *_868b87380244d80a47277beb8d0671ekUqe9ZtIkHz7ZgtH[] = {
/* columns rows colors chars-per-pixel */
"50 75 7 1 ",
"  c black",
". c gray62",
"X c #9E9E9F",
"o c #FFFFFE",
"O c #FFFEFF",
"+ c #FEFFFF",
"@ c white",
/* pixels */
"@@@@@o@@@@@@+@@+Oo@@o+@@+@o@@@@@@@@@+@@@@o+@o@Oo+@",
"@@@@@@@@@o@@o+@o+O@+Oo@@o+Oo+@@+O@@@o+O@+@o+@@@O@+",
"@@@@@@@@@@@@@@+.o@O@+@o@O@+@o@@o@@o@Oo@@@@@@+@o@@@",
"@@@.@o@@@@@@@@@@@o@@@@O@+O@+Oo+O@@@.@O@+@o.O@@@@@@",
"@@@@@@@@O@@@o+@o@O@+Oo@@o@Oo@Oo+@@@@o+O@@O@+Oo+@o+",
"@@@@@@@.+@@@@o@@o+O@+@@@O@@@@.@o+@o@O@@@@@@o@@@.O@",
"@@@@@@@@o@@o@@@@Oo+@@@@@+Oo@Oo@@o+@@+@o+@o@@o+@@@@",
"@@@@@@@@O@+@@@@o+Oo+@@.O@+Oo@@@+O@@Oo+O@+@@@@@@O@+",
"Oo+Oo+@o@O@+@@+O@+@o+O@@@@@@@@@@+@o@O@+@o+Oo+Oo@@o",
"+Oo+@@+O@+O@@O@+.o@@@@@@@@@@@@@@o@.@+Oo@@o+@@+@o@@",
"o.@o+Oo+Oo+O@+Oo@O@@Oo@@@+@@@@@@O@@@@@@o+Oo@O@@Oo@",
"@o+Oo@Oo@@o@@@@Oo@@o+Oo@@@@@@@@@@O@+@o@@o@@o@O@@@@",
"@Oo@@o+@@@@@+Oo+@@+@o+@@@@@+.@@@@+@@+O@.O@+O@@Oo+@",
"@@O@@O@@O.+Oo+Oo@Oo+Oo+O@+@@@@@@@@+@@+@@+Oo@@o@@o+",
"Oo+Oo@O@.Oo+Oo+Oo+@@+@o+O@+@@@@@+@o@Oo+Oo+@@+@o@O@",
"@@o@O@+@@@@o+@@@Oo@@@@@o+@o@@@@@o@O@+Oo+Oo@Oo+.@+@",
"o@@@+Oo@@@@@@+@@@@@@O@@    @@@@@@@@@o+O@@@@@Oo+Oo@",
"O@@Oo@@o+@@+@@+@.+@@+@@    @@@@@+.@+@@+O@@.o+@@+O@",
"@@@+@@+@@+@@+@@@O@+@@@  @@  @@@@@@@@@@o@Oo@@o+O@@O",
"@+Oo@Oo@@@@@@+@@@O@@@@  @@  @@@@Oo@@@+@@+@@+Oo@@@@",
"@o+.o+@o+@@@@@@@@@@@@  @@@@  @@@@@o@@@@Oo+@@+O@@O@",
"+@@+Oo@@@@@@@@@@@@@@@  @@@@  @@@@+Oo+O@@@@@Oo@@@+@",
"o@O@@O@@.@@@@@@@@@@@  @@@@@@  @@@@@Oo+Oo@O@+@o+O@@",
"@o@@o+@o@@@@@@@@@@@@  @@@@@@  @@+O@@O@@@o@@@@@@@Oo",
"@@o@@@+Oo@@@@@@@@@@  @@@@.@@@  @@@Oo+@o+@@+@@+Oo+O",
"@@@o@O@@@@@@@@@@@@@  @@@@@@@@  @@@+@@@@@@Oo@@@+@o+",
"@o+@@@Oo@O@@@@@@@@  @@@@@@@@@@  +Oo+@o@.@@@@@Oo+@o",
"@@o+@.@Oo+O@@@@@@@  @@@@@@@@@@  o+@@@@o@Oo@@@@Oo.@",
"o@@o@O@@O@@O@@@                    @o@@o+@o@@@@@@@",
"@o+O@+Oo@O.+@@@                    +O@+@@+@o+O@+Oo",
"@Oo+@o@@@+Oo@@@+  @@.@@@@@@@@@@@  Oo+O@@Oo@@o@@@@O",
"o@@o+@@+Oo+@@@Oo  @@@@@@@@@@.@@@  +@@@@o@Oo+@@@@o@",
"O.@O@@@@@@@                            @@@Oo@Oo@Oo",
"@O@@@@@@@@@                            @@o@@@+@@+O",
"@+O@@@@@@@@@@@  @@@@@@@@@@@@@@@+@@  @@@@@@@@@o@O@+",
"O@@@@@@@@@@@@@  @@@@@@@@@@@@@@@o@@  @@@@@@Oo+.@+O@",
"@@@+@.@@@@@@@  @@@@@.@@@@@@@Oo+@@@@  @@@O@+O@@@@@@",
"@@@o@@@@@@@@@  @@@@@@@@@@@@@@O@@@@@  @@@+@o@@@@Oo@",
"@@+O@@@@@@@@  @@@@@@@@@@@@@@@+@o@@@@  @@o@O@+O@@O@",
"+@o@@@@@@@@@  @@@@@@@@@@@@@@O@@O@@@@  @@@@@O@@@@+O",
"@+@@@@@@@@@   @@@@@@@@@@@@O@@@@+@@@@   @@@@@@@@.@@",
"O@@@@@O@@@    @@@@@@@@@@.o@@o@@@@@@@    @@@@@@@@@o",
"+@o+@o@O@@    @@@@@@@@@@+@o@O@@O@@@@    @@@@@@@@@O",
"@+@o+@@@@@@@@@@@@@@@@@@@o@O@+Oo@@@@@@@@@@@@@@@@@o@",
"Oo.Oo@Oo@@o@@o@@@@@@@@@+O@+O@+Oo@@@@@@@@@@@@@@@@@@",
"@Oo+O@@O@.O@@Oo@@o@@@@@@+@o+Oo@@@@@@@@@@@@@@@@@@@@",
"@@O@+O@+Oo@O@+Oo+@o@@@+@o@O@@O@@@@@@@@@@@@@@@@@@@+",
"@@@Oo+@o@@@@@o.@@@@@+@@+@@+O@+@@@@@@@@@O.@@@@@@@Oo",
"+Oo.O@+@o+O@@O@@@@+@@.Oo+@o+Oo@Oo+@@@@@+Oo@Oo+.@+@",
"@+Oo+@@+@o+Oo@O@@@@+O@+O@+Oo+O@+@o.@@@@@+@@+@o+@@@",
"O@@@o@@o+@o@Oo+O@+O@@Oo+Oo+@@+Oo@O@+@o+O@@Oo@@@+@o",
"@@@@Oo+Oo+@o@@@+@o+@@@@@+.o@@o+Oo@@@@O@+Oo+@@+@o@O",
"o@O@@@o@@o+@o@O@@@@+@@@@@+@o+O@+@o@@@@@@+Oo@Oo@@@+",
"@o@@o@@@@@o+O.+@@+@o@@o@O@@Oo+@o@@o@@@+@@@O@@O@+@o",
"@Oo@@o@Oo@Oo@@o@@@@@@+@@@Oo@@@+@o@@@@@.@@@+O@@@o@O",
"@.@o+Oo@O@+@o+O@@@@+Oo+@@+Oo+Oo+O@@O@+Oo+@@@Oo+O@@",
"O@@O@@Oo@O@@Oo@Oo@.o+@o+@o@O@.@@+O@@@o@O@+@@@@o@@@",
"@@@@@o+.o@O@+Oo+@@@@@+@o+Oo+O@+Oo@O@+@o+Oo@Oo+O@+O",
"@@O@+O@@@o+@o+@@+Oo@@o@O@@Oo@@@@@@@@@@@@@O@+O.+@@+",
"@@.@@@O@@O@@Oo+@@@@o+O@@@o@Oo+Oo+Oo@Oo+Oo+@@@@@@@o",
"+@@@@@@@@+O@@O@+@o+@@@O@@@@+Oo@@o@@o+O@@@@@@o+O@+O",
"o+Oo@@o@O@@@o+@o@@@@Oo@@.@@o@O@@@@.@o+O@@@o@O@@O@+",
"Oo@Oo+@o+@@@Oo+@o@@@+Oo@Oo+@@+@@+@o@@o@@o@O@+O@+Oo",
"@@o+@@+@@@O@+@@+O@+Oo@Oo+@o@@o@O@+@o+O@+Oo+@@+O.@O",
"o@@@+O.@@o@@@+.o@@@@O@@@@@O@+@o@O@+Oo+@o+@@+@o+O@+",
"@@+O@@Oo+Oo@@@@@o+O@+Oo@O@@@@@@o@@@@O@@@o.O@+@o+@o",
"+@o+@o@Oo+Oo@Oo@@o@@@@Oo@@@+@@@O@+.@@@o@@o+Oo+@@@@",
"@+O@+@o@@@+Oo@@@@@@+@@@O@@@o+Oo@O@+Oo@@o+Oo@O@+Oo@",
"@@@@o@Oo@@o+@o+O@@Oo@Oo.@@@O@@Oo+@o@@o@Oo+O@@O@+@o",
"+O.@O@+@@+O@+@o+O@+@@+Oo+@o+@@@Oo+@@@@o@@@+@@@Oo+O",
"@+@@+Oo+@o+O.+@@+O@@O@@O@@@o@@o+Oo@Oo+@@@Oo+@o@@o+",
"@@+Oo@@@@@@@Oo+@o@Oo+@o@@@@O.+Oo+@@@@o+@o@@o@@@@@o",
"+@o@@o@O@@@@+@@+@o+@o+Oo@@@@O@@Oo@@o@Oo.O@+@@+@o@O",
"o@Oo@O@@@@@@o+@@+@o@O@+O@@@o+@@+@@@O@+@o@Oo@O@@@o.",
"@o+.o@O@+Oo@O@@@@@O@.O@@O@+Oo+@o+@@@@@@@o@Oo@@o@Oo"
};
