/* XPM */
static char *ccfb8aadb3e948e3da459228abb8afd5xzJIIb9LU2G01xVf[] = {
/* columns rows colors chars-per-pixel */
"50 75 11 1 ",
"  c black",
". c #010000",
"X c #000100",
"o c #7ACFCE",
"O c #7ACECF",
"+ c #7ACFCF",
"@ c #7BCFCF",
"# c gray62",
"$ c #9F9E9E",
"% c #9E9F9E",
"& c #9E9E9F",
/* pixels */
"                                                  ",
" ######$%&#%%$#$#%##%&$$%$$&#%&%%&$%##%&#%&%%%$#& ",
" ###&####%##%&##&$%&%&$$%&##&%#&%$&$##$####&$##$& ",
" ###%###&$%#####%###         #$%&$%&$##$%&##$$%#% ",
" $####%$%##$#$#&$$&#         $$$%&$%##%#$###%&#%& ",
" #$###%&#%#%%##%%&%#&%&&%&#$##%&###&%&$#$&#####&& ",
"                                                  ",
"#$&#$#$$&&$%$$%&$$%%&&$#$$%&##&&&&$%&$&&##$$#&##%%",
"%#########$#%###&#%####$#&$#####%%&$####&#%###&#$&",
"$#######&#%&###$####&#%&$%######$$#######&#%###&$$",
"#$%&#%##%$#%%&#########%##%&#%##%%#%#####&&#%&#%$$",
"%&###                                        ####&",
"#%#$# @@++++@@@@++++@@@   @@++++@@@@@+++@@++ #%###",
"&#%&# @@++++@@@@++++@@@   @@++++@@@@++++@@++ ###&$",
"##### OO++++++@@++++@@@   @@++++@@@@++++@+++ ####&",
"#%#$# O+++++++@@++++@@@   @@++++@@@@++++@@++ ####%",
"&#%## @@OOoooo+++O+++++   @@@@++O+OO++++@@@@ &#%&#",
"%#$## @@OOoooo++@@OO++o   @@@@+++OOOO+++@@@@ %#$##",
"$%&$# @@OOO+o@++@@@O@@@   @@@@@@+o++++++@@@@ $%#$#",
"&$%## @@OOO+@@++@@@@@@@   @@@@@@oo+O+++++@@@ &$%##",
"#&#%# @@++++++++O+oo+++   o@++OOoo@O++++++++ #&##&",
"####% @@++++++++o@oo++@   @@+OOOoooo++++++++ #%&##",
"&##&# @@++++++++@@++@@@   oooO+O@@oo++++++++ &##&$",
"%#### @@++++++++++O@+@@   oooo++@@oo++++++++ %&#%&",
"#%&$% @@@@+++++++++++++   @+++++@@++++++++++ ###$%",
"#$### @@@@+++++++++++++   @@++++@@++++++++++ ##%#$",
"#&$%# @@++++++++++++@@@   @@++++@@@+++++++++ #####",
"$%#$# @@++++++++++++@@@   OO++++@@+++++++++@ #%##%",
"#$##$ @@++++++++++OOO@@   @@@@++Oo+O++++@@@@ #$%&$",
"#&##$ @@++++++++++++OO@   @@@@++oo++++++@@@@ %&$#&",
"#%### @@+++++++++++++oo   @@@@@+ooO+OOO+@@@@ %#&##",
"###&# @@++++++++++++++o   @@@@O+ooOOOOO+@@@@ &#%##",
"##### ++@@@@OOOO+@++@@@   ++O@@@ooO+++++++++ #####",
"###$# ++@@@@OOOO++@+@@@   +OO@@Ooo@@++OO++++ #####",
"&#### ++++@@oo++++@+@@@   @OOO@@o@+@o+OO++++ ###&#",
"%#$## ++++@ooo+++@@@@@@   @oOOO@@@@@o++O++++ ####&",
"$%### ++++++++++++++@@@   o@+++OooO+o@@@@@@@ #####",
"&#%&# +@++++@@++@+++@@@   @@++@@o++O@@O@@@@@ #####",
"#&### ++++++o@OO++++@@@   @@++++oo+O++++@@@@ &&###",
"##### ++++++ooOO++++@@@   @@++++@o++++++@@@@ $#&##",
"#$#&# @@+++OOO+++++++++   ++++++@+++OOOooo@@ &#%#$",
"##$#& @@+++O@@++++++++o   +++@++++++O+Oooo@@ %&$%#",
"#%### @@++++@oo+++++@@o   @@+++++++O++++@@++ #%&$#",
"&#%## @@+++@Ooo@++++@@@   @@@+++o+OO++++@@@O ####$",
"%#### @@+oo@OO+++@+++++   ++oOOOooo@@@++@@++ #&##&",
"##### @@OOooO+++++@++Oo   @@oOOOooo+@@++O@++ #%#$%",
"##### @@++@@OO+++++@@@o   @@oo+Oo@@O++++++++ ###&$",
"%&### +@OOO@@O++++@@@@@   +ooo++@@@+++++++++ ###%&",
"#%&$% @@@@+++++++++++++   +@++++oooo+O+O@@@@ ###$%",
"&##&# @@@@+++++++++++++   @@++++oooo+OOO@@@@ #$###",
"##$%# @@@@@++++++++++++   @@++++ooooO+OO@@@@ $#$##",
"##&$& @@@@+++++++++++++   @@++++@@OooO+++@@@ $####",
"&##&$ @@++++++++++++@@+   @@@@++@@++++++++++ &#%&#",
"#&$#& @@++++++++++++@@@   @@O@++@@++++++++++ #####",
"#%#$# @@++++++++++++@@+   @@++++@O++++++++++ &%###",
"&$%&# @@OO+++++++++++++   @@o@++@OO+++++++++ ##%##",
"%##%& @@OO+OOOOO+++++++   @@ooo+OO+++ooo++++ #&#%#",
"##&## +@OOO+OOOO+++++++   @@OooO++OOoo@o++++ #%##%",
"&$%&# @@++O+ooO++++++++   ooooO++++O++++++++ #####",
"#&#%& @@+O++oo+++++++++   ooooOO+++O++++++++ ###%#",
"#%&$# @@++++oooo++++@@@   @@O+OO++@@+OO+@@@+ #%&##",
"##### @@++++oooo++++@@@   @@++OO++O@+O++@@@+ &###$",
"##$#& @o++++@@o@++@@@@@   @@++++++@@@@+o@@@@ #&#%#",
"$#### +oOO+++@@@+++@@@@   @@++++++@@@ooo@@@@ $##$%",
"#$%## @@++++++++++++@@@   @@+++++++++@++++++ &##&#",
"##$%& @@++++++++++++@@@   @@++++++++++++++++ %#$#&",
"#%&#% @@@@@@++++++++@@@   @@+++++@@@@+++++++ #%#$#",
"#$#&# @@@@@@++++++++@@@   @@++++@@@@+@++++++ ###&#",
"##### @@@@@@@@@@++@@@@@   @@++++@@@@@@@@++@@ ###%&",
"##### @@@@@@@@@@OO@o++@   @o++++@@@@@@@@++@@ ####%",
"#$###                                        #####",
"%&#%###&#%&#%&#######%###%#######%&#%#$#########%#",
"###$#&$%&#%&$%&####%&$#&##&#%#$%&#%#$######%&$%&$#",
"&$%####$%&$%&###$%&$###%##%&##&##&#%&#%&$%#$%&$%&$",
"%&$#&#%#$%&#%###&##&#%&$#####$%&###$%#$%#$##$%&#%#"
};
