/* XPM */
static char *_fb6d0edffe541c6d18b0b136858a539ddW2ERhIs1UrgXbG[] = {
/* columns rows colors chars-per-pixel */
"50 75 32 1 ",
"  c #010000",
". c #000100",
"X c #000001",
"o c #B61C1C",
"O c #B71C1C",
"+ c #B71D1C",
"@ c #B71C1D",
"# c #D40000",
"$ c #D50000",
"% c #D50100",
"& c #D50001",
"* c #FE5722",
"= c #FF5723",
"- c #F44236",
"; c #F44336",
": c #F44337",
"> c #4CAE50",
", c #4CAF50",
"< c #4CAF51",
"1 c #301B92",
"2 c #311B93",
"3 c #4A148C",
"4 c #4A158C",
"5 c #9C26B0",
"6 c #9C27B0",
"7 c #9C27B1",
"8 c #9F9E9E",
"9 c #B288FF",
"0 c #B389FF",
"q c #FFFFFE",
"w c #FFFEFF",
"e c #FEFFFF",
/* pixels */
"eeeeeeeeee8eeeeeweeweeeqeeqe8qeeeewqewqeweeweeeeee",
"eeeeeeeeeeeeeeeeeeeeeqeeeewqeeeewqeweeweeeeeeeeeee",
"eeeeee8eeeeewqeeeeeeeweeeqeweeeeewqe8eeeeeweeeqeeq",
"e8eeeeeeeeeeeeee8eeweewqeeeeeeewqewqeeqe8eeeeewqee",
"eeeeeeeeweeweewqeeeeeeeeq8weeeqeeeewqeeeeweeweee88",
"e8eeeee8eeeeeeeweeeeeeeeeeeeeeeeeeqewqeweeeeeeeeee",
"eeeeeee8qeeqewqeeeeeeeeeewqeeqeee8weeeeeeeeeeeeeee",
"eeeeeeeeweewqeeqeeeeeeeeqeeqeweewqeeqeeqeweeweee8e",
"eeeee8eeeeqee8eweeeeeeeeeeeeeeeeeeq8eeeeeeeeeeeewe",
"eeeeeeeeqeeqeeeeeeeeeeeeeeeeeeeeeeweeeeeeee8eeeeee",
"eeeeeeeeeeewqeeeeeeeeeeeeeeeeeeeweeweeeeeeeeeeeeee",
"weeeeeeeeeeeeeeeee8eeeeeeeeeeeeeewqeeeeeeeeeeeeewe",
"eweeeeeeeeeeeweeeeeeeeeee8eeeeeeeewqeeee8eeeeeee8w",
"eeweee8eeee8qeeeeeeeeeeeeeeeeeeewe8eeeeeeeeeeeeeee",
"wqeweeeeee$$$eeweee$$$$$$$$$$$$eeeeew$$eeeeeeeeeeq",
"ewqeeeee$$$eeeeee$$$$$$$$$$$$$$$qeweee$$$$$$8eeeee",
"eeeeee$$eeeeeee$$$$#$    ++++O$#$$$$eeeeeee$$$eeqe",
"eeeee$$eeeee$$$$  $$#$$$<<<$OOO++$$$$$$$eeeee$$ewe",
"eeq$$eeee $$$$  $$$  <<<<     <++<$$$$$$$$eeee$$ew",
"e8$$eeee $$$  $$$ <<<<          ++O,<<$$$$$$$ee$qe",
"ee$eeee$$$  $$$ <<<212 2 1         << $$ ==$$$$eeq",
"eeeee$$$$ $$$<<<,1 12$$$$$$$7       <<<<$$ $$$$$$e",
"eee $$$  $$ <<1113$$$$ 4447$$$$$$271  << $$  =e$$e",
"ee $$$  $$<<< 77$$$774  144 47 6$$$11     ++  $#$$",
"e $$   $$<<   $$$33 444 4 44 476 1$$$$1    $$$= $$",
"e$$    #<< 77#$    +O+O<+O+O9476 7677$$$     $ =$$",
"e$$   $<>>77$$7 40++<<+++<<<<<$    4 7 7$#    & $$",
"e$$   $<,77$$4449$++99      <<<<$777777  $    $& $",
"$$    $<644$ 449+@+9         <<<<$       $$    $ $",
"$$7767$6   $47++@<             <<$$476777$$7   $$$",
"$$    $44  $6 9 OO             <<,$467677$77    $$",
"$$   7$7777$$   OO             <,,$74  7 $ 7    $$",
"$&#  7$  674$$ 9OO<          <<< $$7774 $$777 77$$",
"$$   2$$ 6666$$9OO+++++<<<<O+O++$$7   7$$       $$",
":#$    $$$4466$$#++ +++++++O+O+$ 7667 $$  1   <$$$",
"::$      $$$667 #++$$$$$$$$#999977647$$    <<< #% ",
"e  #       $$$4 47 7999999 96667   7$$     <<< $# ",
"e=$$$ <      $$$ 737  7 99997 447$$$$7    <<  #$$*",
"ee=#$ <<       $$# 77447   6 $$$$$ 7 7   <<<$$$$$*",
"ee=#$$ <<<   67   $$$#$$$$$$$$   77   <<<  $$#$$*e",
"eeee$$$$ <<<<<<         7  7        <<<< $$$$$$ ee",
"e8eee$$$$$$$$ <<<<<     <   <<   <<<<  $$$$$$$=eee",
"eeeeeee=$$$$#$$$$       <<<<<<<<<< $$$$$$$  eee$$e",
"ee#eeeee=$=$$$$ #$$#$$#$$$$$$$$$$$$$  $$$$eeee$$ee",
"eee$$eeeeee==$$$$$$$$$$  $$ $   $$$$$$-=eee$$$$eee",
"eeeee$$$eeee   -$---$$$$$$$$$$$$$$$-;-ee$$$eeee8ee",
"eeeeeee$$$eeeeeeeeeee $ $ -$- qeeeeee$$$eeeeeeeeee",
"eeeeee8ee$eeeeeeeeeeeeeeeeeeeeeqeeeeeeeeeeeeeeeeee",
"eeeeeeeweewq8eeeeqeweewqeweeweewqeweeweeweeweeweee",
"eeeeewqeeeewqeeeeeeewqewqewee8qeweeee8wqewqeweeeee",
"ee8eeewqeeqeeeewqeeqeeqewqewqewqewqeweeeqee8eeqeee",
"eeeeeqeweeeqeeqewqewqewqeweeweeeeewqeeqeeqeeqeweee",
"eeeeeeeeweewqeeqeeqewqeeqeeeeweeeeeeqewqewqeeqe8ee",
"eeeeeee8ewqeweeweeeq8wqeeqewqewqeweeweeeeeweeeqeee",
"eeeeeqeweeweewqewqeweewqeeqeweewqeeeeeeeweeweeeeee",
"eeeeewqeweewqeeeeweeweewqeeqeeqewqeeeeeqeweeeeeeee",
"weewqeeqewqeeqeeeeeqewqeeeeeeeeqe8eeeqeeeeweeeqeee",
"ewqeeqeweeeeeeqeeeeweewqeeqewqeweeeqewqeeeeweeeeee",
"eewqeweeweewqeeeeeeeeeewqewqeeqeeqeeeeweeeeeeeeeee",
"weeweewqeeeeweeweeeeeeqewqeweeeeeeqewqeeeeweeweeee",
"eweeeeeeqeee8eeewqewqeeeeeqeeeeweeeqeeeeweeweeweee",
"eewqeweewqewqewqeeqeeq8eqeweeweeweeweeweeeeeweeeee",
"eqe8qewqeweeeqeweeeqeeeewqeweeeeeeqeweeeeew8eweeee",
"eeqeeeeeeewqewqeeeeeqewqeweeeqewe8weewqeeeeeeeeeee",
"qeeqeeqeeqeeeeeqeweewqeweeweeweewqeweewqewqewqeeee",
"weeeqeeqeeqeeqeweeeeeweewqeeeeeqeeqeweeweeweewqewe",
"ewqewqeeqe8qewqeeeewqeeeeeeeeqeeeewqeeeeweeweewqew",
"qewqewqeeeeeqeeqeweeeqeeeeeqeweewqeeqeeqeweewqewee",
"eqeeqewqeweeweeeqewqeeqe8eeeqeweewqeeeeweewqeeqewq",
"eeeeeeeweewqeeqewqewqewqeeeewqewee8eeeqeweewqeeeee",
"qewqeweewqewqewqewqewqeeeewqeeqewqewqeeqeeeeeqewqe",
"eeeweewqeeeewqeeeewqeweeeqeweewqeeqeeqewqeeeee8ewq",
"eweewqeeeeeeewqewqeeqeeqewqeweeeqeeeeeqeeqeweeweee",
"qeeqewqeeeeeeeeeeweeeqeeqewqeeqeweeeeeweewqewqewee",
"wqewqeweewqeeqeweewqeeqewqeweewqeweeeqeeqeeeewqeee"
};
