/* XPM */
static char *_292a2b5524c4dbab31b544ed85cb78adbwCmLlLwHCpkZUB[] = {
/* columns rows colors chars-per-pixel */
"50 50 10 1 ",
"  c gray62",
". c #9F9E9E",
"X c #9E9F9E",
"o c #9F9F9E",
"O c #9E9E9F",
"+ c #9F9E9F",
"@ c #9E9F9F",
"# c #FEFEFE",
"$ c #FEFFFE",
"% c #FFFEFF",
/* pixels */
"$$$$$$$$$%$$$$$%%%%%#####....O.O.@@.@@.@@@@..@@.@@",
"$.$$$$$$$$%%%$$$%$%$%%# $...O.O.....@.@...@.@@@$XO",
"$$$$$%$$$$%%+$%%#%+%%%%$$....$..@..@....@@@....XXO",
"$$$$$%$$$$%$$%%$%%%$$$%%$...OO..@.@@.@....@....XXX",
"%$%%%$$+%##$%#%$#$$$$%%%$O@.X.X.@.@@.$.O....@@@X.O",
"%%%$$$$%%%#$#%###%$$%$$%$.@@..@X@..@..OO@@...@..X@",
"$$%$$%%$%%$$#$%##$$$$%%%$...@@.@@..@.OOO@XX.@@@.XO",
"%$%$$$%%%%%$$$$$##$$%$$%$O.@@@...@.X.X@.XX..@@$OOX",
"%$$%$$%$%$%%%###%%+$$%%$$OO..O$..@.@.@@@+++XX+++Xo",
"%%$%$$%$$$$%%$##%$$$%%%+$X@@@O.........@.X++XX+X++",
"%$$%$%%$%$$$%+$$$$$$%%$$$OOO.O..@..@.@.@X+++X@XXXX",
"%%$%%%$%%$$$$%%$%$%$$%$$$@...OOO.@..@@..X.+++++++X",
"$$+$$$$$%%%%%$%%$$$%$$$$$@@@OO..X@@@+$XX+XX+XXXX++",
"$$$%$$%%$$%%%$$%%$%$$$$$$@@@..@@X...++X+.XXXXX+X++",
"$%$$%%$%+$%$$$%$$$$$$$$$$..O@...XX.X+.++++++X+.++X",
"$%%$%$%$$%%%%%%$%%+%$$$$$..$@..@.X....X+XXXX.+X++.",
"%%$$##%%$%$%%%$$%$$$$%%%# ...@.@..@.@.+++X+o+#.X +",
"%%$$##%$$%$$%$%%%%$$%$$%# ..XX@...@.@@+oXX+++X.X +",
"%%$$$$$%$$$$$$%$$%%%$%$%#  ..X.@@..@.@oXo@XXX+++  ",
"%$$$$$$$%$%%$$$$%$$$$$%$#  .@@@@@.@@@O+++++XX..X  ",
"%%%%%%%%$$%$$$%%%%$$$%%%$.@@X...@.@.OO..X+++X++X .",
"%%$%%%$%$$%%$$$$%$%%%$%%$..O@X.@@@@.$@@.+X+oXXX+ .",
"##+$$%%%%%+$$$$$$#$%$+#$$O.$@..@@@..O...+++XXX++..",
"#%%%%%%%$%%$$$$$%%$%%%$%$@...@@.@O.....+++XX+X++$.",
"##$$$$$$$$$$$$$$$$$$$$$$$O++++++      ++++.+......",
"  ....@.@@O@...@.OO@OO@.O$$$$$$$######$$$%$$$$$%$$",
" ....@O..@@..@.@OO@.O....$$$$$$$#####$$$$$%%$$%%$$",
"  $.@.@.@@@@.O.@O.OO.....$$$$$$$+%%###$$$$%$$.$%$$",
"@..@@.@..@$..@.@O..O.$..+$+%$%$$$%%%$%$+$$%%$$%%$$",
"@..@O.@..@.O..@@.O.O....+$$%$$%%%%%%%$$$$%$$$%%%$$",
".@@..O..@..@@..@.@.@....+$%%%$$$$$$%$%$$%%$$%%$$$$",
"@...@@@..@@.@.@..@O.... +$$$$$%%$%%$$%%$%%$$$$%$$$",
"@.@.+XX++++++.XX@@@+++XXX$$$%$$$%$%$%%%%$%#####$%%",
"@..@X++XXX++++XXO@O+X+XX.$$$$$%%%$+%%%$%$%#% #$$%%",
"@@$O+XX.X+X+X++X.@@@X++.+$$$$%$$$%$$$$$%%$%%$$$$$%",
"@...XXX#+X+X+XX+@...$++++$$$$%%%$$%%%$$$%%%%%$$$$$",
".@+++XX+..+X$X@@@@.@.@.O.$$+$$%%$$%%%$$$%$%%$%$%%%",
".@OOXX++X. +..+O...@@..OO$$$%$%%$%%$%$$$$###%$%%$$",
"@@@O@+++X.++++++O..O...@O$$$%%$%$%$%$$$%$%##%$%%%%",
"@..@@+++.XX+XX+XOO@O@..OO$$$$$$$$%$$%%%%$%%%%$%+%%",
".XO..OOXXX...@.@.XO.$O.@+$$%$$%$# %%$$%$+$$$%%%%%%",
".O$OOX....@.$O@.X.OXXX@@+$$$%$%$###%$%$%$%$%%$%%$%",
"X...OX.O@@@@@...OX.XXX@@+$$$%$$$##%%$%$$$$%%%$##%%",
".@@.XXO.@@@.@@.@XO. ...@+%%$%%$$##%%%%%$$$%%%$##$%",
"..@..@.OOO....@..O.O... +$$$$$$$###$$%$%$%$$###$%$",
".@..@.....@..@.@.XOO... .$$$%%$$##$$%%$%$$$%##$.$$",
"@@@O@@$XO..@.......OO.  +$%$%+$$$$$$$$$%%%%$%%$$%%",
"..@X...O....$.@..OO.$. ++%%$%$$$$$$$%%$+$%%%$$$$%$",
"@$@@..@.@@..@OXOOXOXOOX.X$$$$$$$$$$%$$$%$%$$$%$%$%",
"..@....@.@..OOXO.X.@.XOOO$$$$$$$$$%%%%%%$%%$%%%$%$"
};
