/* XPM */
static char *d8d46e31aa2b448f8b3a38f41a604aad9KsoUgu0aZgPXsXX[] = {
/* columns rows colors chars-per-pixel */
"50 50 10 1 ",
"  c gray62",
". c #9F9E9E",
"X c #9F9F9E",
"o c #9E9E9F",
"O c #9F9E9F",
"+ c #FEFEFE",
"@ c #FFFEFE",
"# c #FEFFFE",
"$ c #FEFEFF",
"% c #FEFFFF",
/* pixels */
"%%%%%@@%+%%%++%+%+%++++%+++%++%+%+%%++%+%+%+%%++++",
"%O%%%%@@+++%++++%%++%%%.+++%%+%++%%%++++%%%++%%+.%",
"%%%%++@@+%+%.++%++.%+%+%%+%+%%+%%%++%++.%%++.+%+%%",
"%%%%%+@@%%%++++%+%%%%%+++%%+%.%%%++++++++%%++++%%+",
"%%%%%%+.%%+++%+++%+%%++++%%++%%++%%+++%+%++%+++%%+",
"++%%+%%%+%%+%%++%+++%+%%%++%++++++%.%++%%++%.%+%%+",
"+%+++%+%+%%+%%++%%%%+++++%++%%++%%+%%++%%+%+%+++++",
"%+.%%+++++%%%+%++%%+++%%%+++%++%+%%%%%%+%%++%%%+%%",
"%++++%%+%+%%+%+++%.%%%++%+++%%++%+++++%++++%%%%%+%",
"+%%+++%%.%+%%%%++%%%++%.++%++%+%+%%%%+%++%+%+%.++%",
"+++%%%+++++++.+%%%%%%%+%+%%+%.+%+%+%%+%%.+++++%+%+",
"+++++++%%++%%%+%%+%+++++++%%%%+++%%.%+%%%%+++++%+%",
"+%.%%%+%%%++%++%++%++++++%%++%%%%+++%%%%+%%+%++%%+",
"%%+%%%+%++%+%+++%+++%%++%+%%%+%+%%%++++++++++%%++%",
"%%%+++%+.%+%+%++%%+++%+++%%+%%%%%++%%%++%+%%+.++%+",
"%%+%%+%%%%+++%++%+.%%%%+%%+%+%%+%%%%.+%+%+%%%%+%%+",
"+%+%++%%+%%+%+%%+%%+%%+.++%%%%++%+%+++%+%+%+%+++%%",
"%%+%%++%+++%%+%%%%++++%%%+%%.%%+%+++%+%%%++++%%%+%",
"+++%+%++%%+%%%%%++%++%%+%++%+%%+%%%%%+%%+%+%%%%%+%",
"%+%+++%+%%%+%+%%%++%+%%%%++++%%%%%%%+%%%%%%+%%%%%+",
"%%+%%++%%%%+++++%%%++%+++%%++%%++++%%%++%%.+++%%%+",
"+%%%%%%%++++++++.+%+%%%+%+%%+%+++%%%%%+%+%++%+%.++",
"%%.%++%%+%.%++++%+++%.%++%++%++++++%.%%+++%+%++%%%",
"++%+%%+%%+%++%%++%+%+%+%+++%.++%+%++%%+++%+%%%%%%+",
"+%+++%+%%%+%+++++%++%+%%%%+++%%++++%%%++%%%%+%%%++",
"%%%%%++%%%%+%%+++%%%+%+%++%%%%++%++%%+%%+%++%%+%%%",
"+%%+%+%%%%+++%+%%+++%+%+%++++%%%+++%++++%+%++%+++%",
"+%%%%%+%+++%%%+%+%%%++%+%++%%%++.%%++%%++%+%%.%%+%",
"%++++%%%%+%%%%%.++%%%%%%+%.%%+++%++%%++.%++%++%+%+",
"+%%+%+%+++.%++++%%+%%%+%%+++%++%+++++%+%+%++++%++%",
"%%+.%%+++%+%%%%%%++%%%%++%+++%%+%%%+++%%++++++%+%%",
"%%+%+%%%%%%%+%%+%%%%%%%+%+%+%++%+%+%%++%%+%%+++%%%",
"%%++%%+%%+%%%%++++%.%%+%%+%%%%%+%++%%+++%+%+%%%%%+",
"+%%%+++%++%%+%+%%%%%%+%%+++++%++++.++%+++%+%.+%+%+",
"+%%+++%++%%+.%+++++%%%++++%++%+%+%%%%%%+%%+%%%+%++",
"%%%%%%+%+%%%%%%%%%+%%+%%%%%+%+%+%++++%%+%+%+%+%+%+",
"%%%%%%%+%+%+++%++%++%%++%%+.++%%%%%%+%++%+%+%++%++",
"%+%.+%%+%%%+%%%%%+.%++%+++++++%%+%+%++%+++%%%%%+++",
"+++%++%+%%%%%%+%%%++%%%+%+++++++%%%%++%%+%%+%+%%++",
"%+%+%++%%%%%++%%+%%%%%++++%%%%%%+++%%++%%%++++%.+%",
"%+%+%.%%%%%%%%+%+%%++%%%%+%+%+%%%.+++%+%.++++%%%++",
"+%+%++%+%%%+%%+%%%%%+%++.+++%+++%+%+%+%%+++++%+%%%",
"%%%+%%+%+%++%%%%%%%+%%%%++%++++%+%%+%++%%%%++%%+++",
"%%%%%%%+%%%+%.+%+%%%+%%+%+%+%%%%++++++++++%++%%%%%",
"++%%%%++.+%++%%%%+%.+%%%%%%++%+++%++++%%+%%+%%%++%",
"+%%%%%%+%%+++%%%++%%%%%+%%+%+%%%%%%%+++%+++%+%%.+%",
"%%++++%%%%%%%%+++++%%+%%+%+%+.+++%%+%+%%+%%%%%%%%%",
"++%.%%%%%++%+%%%%%++%%%.++%%++%%%++++%%.%+%+%++++%",
"%%%%+%%%%%%%++.%%%+%%%++%%+%%+++%%+%+++%++++%%%+++",
"++%%%%++%+%%%%+%++%+++%+++++++%%%++%+%%++%%+%%%%++"
};
