/* XPM */
static char *b15dd626275b42fec46f0e2e604df697qrvna15PAJWUrwpa[] = {
/* columns rows colors chars-per-pixel */
"50 75 5 1 ",
"  c gray62",
". c #9F9E9E",
"X c #FEFEFE",
"o c #FFFEFE",
"O c #FEFFFF",
/* pixels */
"OOOOOoOOoOOOOOoOOoOOOOOOOOOOOOOOOOOoOOOOOoOOOOOOOO",
"OOOOOOOOOOOOOOOOOOoOOOOOoOoOOOOOOoOOoOOoOOoOOoOOOO",
"OOOOOOOOOOoOOoOOOOOoOO.OXXOOOOOOOOOOOo.OOOOOOOoOOo",
"OOOOOOOOoOOOOOo.OOOOoOOOXoOOoOOooOOOOOOOOOOOOOOoOO",
"OOOOOOO.OoOOoOOOOOOOOOOOXXOOOOOO.OOOoOOoOOoOOo.OOO",
"OOOOOOOOOOOOOoOOoOOOOOoOOOOOOOOOOOOOOoOOoOOOOOoOOo",
"O.OOOOOOoOOo.OoOOOOOoOOOOOOOOOOOoOOOOOoOOOOOoOOOOO",
"OOOOOOOOOOOOoOOoOOOOOOOOOOOOOOoOOOOOOOOoOOOOOOOOoO",
"XXXXXXXXOOoOOOOOOOOOOOOO.XXXXXXXOOOOOOOOOOOOOOOOOo",
"XXXXXXXXoOOoOOOOOoOOoOOOXXXXXXX.oOOOOOOOOOOOoO.oOO",
"XXXXXXXXOoOOOOOOOOoOOOOOXXXXXXXXOOOOOOXXOOOOOoOOOO",
"XXXXXXXXOOoOOoOOOOOoOOOOXXXXXXXXOOoOXXXXOOOOOOOOOO",
"XXXXXXX.XXXXOOOOOoO.OOOOXXXXXXXXOOOoOO XOOOOoOOoOO",
"XXXXXXXXXXXXooOOOOOOoOOOXXXXXXXXOoOOooooooOoOOoooo",
"X.XXXXXXXXoXoOoOOoOoOOO.OOXXXXXXoOoOooooOOoooOOo.O",
"XXXXXXXXXXoo.oOoOo.ooOOOOOOOXXXXOOooOoo.ooOo.OOoOO",
"XXOoXXXXXXXXXXXXXXXXXXXOXXXXX XXXXXXXXXXOOXXXXXXoo",
"XXOOXXX.XXXXXXXXXXXXXXOOXXXXXXXXXXXXXXXXOOXXXXXXOo",
"OOOOXXXXXXXXXXXXXXXXOOOOXXXXXXXXXXX XXXXOOXX XXXOo",
"OOOOXXXXXXXXXXXXXXXXoOOOXXXXXXXXXXXXXXXXOOXXXXXXoo",
"XX.XXXXXXXXXXXXXoOOooooOXXXXXXXXXXXXXXXXOOOOXXXXOo",
"XXXXXXXXXXXXXXXXOo.OOOoOXXXXXXXXXXXXXXXXOOOOXXXXoO",
"XXXXXXXX.XXXXXXXOOOOoOO.XXXXXXXXOOXXXXXXooOOXX XOO",
"XXXXXXXXXXXXX.XXOoOoOOoOXXXXX ooOOOXXXXo.oOoXXXXOo",
"XXXXoooXXXXXXXXXooOooooOOOOoOoOoOOO.OoOooOOOOoXXoO",
"XX.XOooXXXXXXXXXoooooOooOooOooOOOOOooOooooooOoXXoo",
"XXXXOOOoXXXXXXXXoooOOOOOOOoOOOooOOoOOoOOooOooXXXoO",
"XXXXOoOO.XXXXXXXOOooOOOOOoOOOOOOOOOoOOOOOOOoo.XXOo",
"XXOOOOOOXXXXXXXXOo.XXXOOOooooooOXXXX.oooOooOOooOoo",
"XXOXOOOOXXXX XXXoOooXXX.ooOoOoooXXXXOOXXOoOOooooOO",
"XXXXOOOOXXXXXXXXoXXOXOOOoOoo.OOoXXXXXXXXOoooOOOOOO",
"XXXXOOOOXXXXXXXXooXOXXOOoOOOOOooXXXXXXXXoOoOOoOOoO",
"XXXXXXXXXXXXooOoXXXXXXXXXXXXoOOOXXXXXXXXoOOoOOOOOO",
"XXXX XXXXXXXXOoOXXXXXXXXXXXXXOOoXXXXXXXXOO.oOoOOOO",
"XXXXXXXXXXXXXXOo.XXXXXXXXXXXXXooXXXXXXXXOOOOOoO.oo",
"XX.XXXXXXX.XXXOoXXXXX XXXXXXXXOoXXXX.XXXOOOOOoOOoO",
"XXXXXXXXXXXXooOoXXXXXXXXXXXX.OOOXXXXXXXXXXOOXXXXOO",
"XXXXXXXXXXXXooOoXXXXXXXXXXXXOOOoXXXXXXXXXXOOXXXooo",
"XXXXXXXXXXXXOoOOXXXXXXXXXXXXOOOOXXXXXXXXXXXXXXoOXX",
"XXXXXXXXXXXXOOOOXXXXXXXXXXXXoooOXXXXXXXXXXXXXXOoXX",
"XXXXXXX OOoooOOOXXXXXXXXOooXXXOo.XXOOOOXOOooO.OoXX",
"XXXXXXXXoOooOOO.XXXXXXXXOo.oOOOoXXOOOOo.oOOooOOOXX",
"XXXXXXXXoO.OooooXXXXXXXXoOOoOoooOOOOoOOoXXooooOOXX",
"XXX XXXXoooOOOOOXXXXXXXXOoOoOoOoOOOOOoOoXoooOOoOXX",
"OOXXXXXXOOOOOOOOXXXXXXXXooOOoOOOOOoOOoooXOoOoOOoXX",
"OXXXXXXXOoOOOOOOXXX.XXXXOooOOoOooOoOoOoOOOOOoOOoXX",
"OOXXXXXXooOOOOOOXXXXXXXXoooOoOoooo.XOoooOoOo.OOoXX",
"OOXXXXXXoOoo.oXXXXXXXXXXoOOooOoooOOooOOOoOooOOOoXX",
"OOOOOOOOOOOoOOoOXXXXXXOoOOooOOOoOooOOOOOOoOoOOXXXX",
"OOOOOOOOOOOoooOOXXXXOOoOoOO.oooOOoOOoOoOOooOOOXXXX",
"XXO.XOXXOOOOoOOOXX XOOOOoOooOoOooOoOooooOoOOOOXXXX",
"XXoOXXXXOOOOoOoOXXXXOOOOOoOooOoOOOOooOoOoOOOOOXXXX",
"XXXXXXXXOOOOOOOoOooXOOOOOoOoOOOooooOOOOOOOOoXXX XX",
"XXXXX.XXOOOOOOoOoooXOOOOOOOoooOOO.oooOoO.OOoXXXXXX",
"XXXXXXXXOOOOOOoOoOOOOOOO.oooOOooooOOOoOOoOoooXooXX",
"XXXXXXXXooooOOOoOOooOOOOOoOoooOOooOooooOOOOoOOoOXX",
"XXXXXXXXOOooO.OOooXXXXXOOOOoOOOoooOoooooXXXXXXOOXX",
"XXXXXXXX.oOOoOOOooX.XXXXOOooooooOOoooooOXXXXOXOOXX",
"XXXXXXXXoOOOOXoXoooOXXXXOOoOoOOOOOOOOoooXXXXOOO.XX",
"XXXXXXXXOoooOXXXooooXXXXoooOO.oOOoooOoOOXXXXOOOOXX",
"XXX.XXXXXXXXOXXXOooooOO.ooOOoOOOOooooOo.XXXXXXXXXX",
"XXXXXXXXXXXXoX XOOOOOoOooOooOoOoOooOoooOXXXXXXXXXX",
"XXXXXXXXXXXXXXXXooOOooooooooooOoOooOoOOoXXXXXXXXXX",
"XXXXXXXXXXXXXXXXOOOOoOOoOOoOOOOOoOOoOOOOXXXXXXXXXX",
"XXXXXXXXXXXXXXXXXXXXXXXXXXXXXXXXXXXXXXXXXXXXXXXXXX",
"XX XXXXXXXXXXXXXXXXXXXXXXXXXXXXXXXXXXXXXXXX XXXXXX",
"XXXXXXXXXXXXXXXXXXXXXXXXXXXXX XXXXXXXXXXXXXXXXXXXX",
"XXXXXXXXX XXXXXXXXXXXXXXXXXXXXXXXXXXXXXXXXXXXXXXXX",
"XXXXXXXXXXXXXXXXXX XXXXXXXXXXXXXXXXXXXX XXXXXXXXXX",
"XXXXXXXXXXXXXXXXXXXXXXXXXXXXXXXXXXXXXXXXXXXXXXXXXX",
"XXXXX XXXXXXXXXXXXXXXXXXXXXXXXXXXXXXXXXXXXXXXXX XX",
"XXXXXXXXXXXXXXXXXXXXXXXXXXXXXXXXXXXXXXXXXXXXXXXXXX",
"XXXXXXXXXXXXX XXOOOOOOOOXXXXXXXXXXXXXXXXXX.OOOOOXX",
"XXXXXXXXXXXXXXXXOOOOOO.XXXXXX.XXXXXXXXXXXoOOoOOOXX",
"XX XXXXXXXXXXXXXOOOOOOXXXXXXXXXXXXXXXXXXXXOOOOOOXX"
};
