/* XPM */
static char *c114c30dae424c57fc7b200155b7924cutU0A7EkRo35b23M[] = {
/* columns rows colors chars-per-pixel */
"50 75 77 1 ",
"  c None",
". c black",
"X c #010000",
"o c #000100",
"O c #010100",
"+ c #000001",
"@ c #010001",
"# c #000101",
"$ c #010101",
"% c #3C4040",
"& c #3C4140",
"* c #3D4140",
"= c #3D4141",
"- c #5E5150",
"; c #5E5051",
": c #5E5151",
"> c #5F5151",
", c #795448",
"< c #785548",
"1 c #795548",
"2 c #795549",
"3 c #E53934",
"4 c #E53835",
"5 c #E43935",
"6 c #E53935",
"7 c #FF5622",
"8 c #FE5722",
"9 c #FF5722",
"0 c #FE5623",
"q c #FF5623",
"w c #FE5723",
"e c #FF5723",
"r c #F44236",
"t c #F54236",
"y c #F44336",
"u c #F54336",
"i c #F44237",
"p c #F54237",
"a c #F44337",
"s c #F54337",
"d c #4CAE50",
"f c #4CAF50",
"g c #4DAF50",
"h c #4CAF51",
"j c #8BC24A",
"k c #8AC34A",
"l c #8BC34A",
"z c #8BC34B",
"x c #009688",
"c c #009788",
"v c #009689",
"b c gray62",
"n c #9F9E9E",
"m c #9E9F9E",
"M c #9F9F9E",
"N c #9E9E9F",
"B c #9F9E9F",
"V c #9E9F9F",
"C c #9F9F9F",
"Z c #B5ACB4",
"A c #B4ACB5",
"S c #B5ACB5",
"D c #B5ADB5",
"F c #C8C9C9",
"G c gray79",
"H c #D0C8D0",
"J c #D1C8D0",
"K c #D0C9D0",
"L c #D1C9D0",
"P c #FEFEFE",
"I c #FFFEFE",
"U c #FEFFFE",
"Y c #FFFFFE",
"T c #FEFEFF",
"R c #FFFEFF",
"E c #FEFFFF",
"W c white",
/* pixels */
"TTTTYYYYMPTTTTMTTTTTTTTTMTTTTTMTTTTTTTTYTTMTTTTTT ",
"TTMTYYPTTPTTTTTTTTTTTTTTTTTTTTTTTTTTTTYTTTTTYTTTTT",
"TTTTTYTTT..............$$$........$.$....TTTYYYYTT",
"TTTTYYYY................$$..$$............TTYYTTMT",
"TYTYYTTY.hghhzzz686k1kk636781178zzkuu11zs.TTTYTTTT",
"YTTYTTYY.gh12zu13kggggggzz811711111111kzz.TTTYYTTT",
"YMYTMYYT.hg1gzuzTTTfgTTTT8TTTT3TTTTzu1ukk.YMYTTTTT",
"TTTTTTTY.h111zz1TsTfgcggTgcsgTz118Tkszzks.TYTTYTMT",
"TTYTYYTT.2h11hu6ggTsgTTTTcTTTTk71zTukkkks.TTTYYYTT",
"TTYTYTTT.u11s6611gTsghcgTcgghTg77kT1k,1sk.TTYTYTTT",
"YYMTYYMT$1uz61s61TTTfTTTTgTTTT1<z1T11s1kk.TTYYMTTT",
"YYTTTTYY.u11k6661kgg8yccuhgshg103zzk16616.TTTTTYTT",
"YTTTTTTT.k161a68:011hhee88zz,0>76z7656156.TTTTTTTT",
"YYTMTTMT.k<s1u16:16111ZZZZZZ<1>>1z563>;51.TMTTYTMT",
"YTTTTTTT.z1<11<1:1111111111111;>366>4k<>>.TTTTTYYT",
"YYTYTTTT.1111skk:1:111ZZZZZZ<<>;>66-611>>.TTTTTTYT",
"YTYTTYYY.11111zz-z11,11,111211><5>5>1646>.TTTTMTYT",
"MTTTMTYY.z1zzkk111,11,1141416<111116>666-.TTTTTTTY",
"TTTTTPMT.111kzz111111<66FF161>>11<11566>s.YMTYTTTT",
"YMTTTYYT.kzzzk111,17777;>>>6666511<<>>>>>.TYYYTTMT",
"TTTTYTTT..................................TTTTTTTY",
"........BVBBCVMMCBVMVVBBVMVBMMMMMMVVVMVVMC........",
"TTTTYTTTVMBVVMMMMVVMMMCM..MMMMMMMVBVMVMMMMTTTTPYTT",
"TTYYYTTTTVVVMMMMBMVVVMMMNMMVMMMMMMBVMMMMMTTTTYTTTT",
"TTTYTTYTTTTTTTTTTTTTTT&&&&%&YYTYTTTTTTTYTTTYYTYYTT",
"TTYTTTYYYTTTYTTYTTTTTTLLLLJJTTTTTTTTTTYTTTTYTYYYTT",
"YTTYYTTYTYYYTTYTTTTTTTMMMMMMTTTTTTT.MM.MMTTTTYTYTY",
"TTTYYYTTYTYTTYYTTMMMMMMMVVVMMMMMTTT..MMMMMTTTYYYYT",
"TTTTTYTTTYYYTYTTTTYTTYTTTTYTTYTYTTTT..MVMMMPYYTYYT",
"TYYTYTYYYTTTYTTTTTYTYYPPTTTYTYYTTTTTT.VMMMbPTTYYTT",
"TYTTYYYTTYTYTTYTTYTYTYTPTTYTYTYTTTTTTTTTYYYTTYTTTT",
"YTTYYTTYTTTTYYTTTTYTTYYYTTTYYYYYTTTTTTTTTTTTTYYTTT",
"YYYTTYTYTPPPTTTTTTTTTTTTTTTTTTTTTTTTTTTTTTTTTYYYYT",
"YTTTYTYTMNNMMMMMMVMCMMMBMMMMMMMMMMMMMMMMTTTTYTTTTT",
"YTTTYTTTVVMbMMMV....................VMMMMTTTTTYTYT",
"YYYTTYYTTMMMMMMM......$.............MMVMMMTTTTTTYT",
"PTYTTYYYTTMMMM.................$......VMbNNTYYYTTT",
"TTYTYTTYTTTMBM.......$................MMMbMMTYYYYT",
"YTTTTTTTTTTTMM................$.......MMMMMMMYYTTT",
"TYYTTTTTTTTTTT..............$.........TTTTTTTTYTTT",
"TYTTTTYTTTTTTT........................TTTTTTTTTTTT",
"TYTTTTTTTTTTTT.....$$.$....$..$..$.$..TTTTTTTTTTYY",
"....................$....$..$..$.$................",
"TTTTTTTTTTTTTT..$............$.....$..TTTTTTTTTTTT",
"TMTTTMT.$....T..$.....$.$..$..$.......T...$..TTMTT",
"TYTTTTT......T.$.$..$..$....$.........T......TTTTT",
"TTTTTTT......T....$..$....$.......$...T......TTTTT",
"TYTMTTT......T..........$..$..$.$...$.T......TTTYT",
"TTTTTTT.....$T.......$......$.........T......TTTY ",
"YTTYTT ......T..$..$.....$.....$...... ......TTTTT",
"TTTTTTT....$. ......$.....$..$........T......TTTTT",
"TTTTTTT......T....$........$..........T......TTYTT",
"YTTYTTYTT..TT ........$..$.......$....TTT..TTYTTTT",
"TMTTYTTYT..TTT.........$..$.......$... TT..TTTTTTT",
"TTTTTTTTTT..TT....$..$.....$..$....$..TT..TTTTTYTT",
"TTTYTTYTTT..TTT.$..$........$........TTT..TTTTTMTT",
"TYTTTMTTTTT...............$..$$..........TTTTTTTTY",
"TTTTTTTT TT...........$....$....$........TTTTTTTTT",
"TTTYTTYTTTTTTTTTTT..$..$.$.......$TTTTTTTTTTTTTTYT",
"TTTTTTTYTTTTTTTTTT...........$$...TTTTMTYTTTTTTMTY",
"TTYTTYTTTTTTTTTTTT....$.$.........TTTTTTTYTTYTTTTT",
"TTTYTTYTTTMTMTTTTT..$.............TTTTTTTTYTTYTTYT",
"TMTTYTTTTTTTTTTTTT.........$......TTTTTMTTTYTTYTTY",
"TTYTTYTTTTTTTTTTTTT$..$..$.......TTTTTTTTTTTTTTTTT",
"TTTYTMYTTYTTTTTTTTTTTTT......TTTTYTTYTTYTTYTTTTMTT",
"TYTTYTTTTTTTTYTTTTTTTTT......TTTTTTTTTTTYTTYTTTTTT",
"TTTTTTTTTTMTTTYTTMTTTTT......TTTMTTTMTTTTYMTTTTTTT",
"TTMTTTYTTMTTTTTYTTTTTTTTT..TTTTTTYTTTTTYTTYTTYTTTT",
"TYTTYTTYTTTTTTTTYTTYTTTTT..TTTTTTTYTTTTTTTTTMTYTMT",
"TTTTTTTTYTTYTTYTTTTTYTTTT..TTTTTYTTYTTTTTTTTTTTYTT",
"TTTYTTYTTTTTYTTTTTTTTTTTT..TTTTTTYTTYTTMTTTTTTTTTT",
"TMTTYTTYMTTTTTTTTTTYTTY......TTTTTTTTYTTTTTTTTTTTY",
"TTTTTYTTTTTYMTYTTTTTT....TT....TTTTTTTTTTTTTTTTTMT",
"TTTTTTYTTYTTTTTTTTT....TTTTTT....TTTTTTTTTMTTTTTTT",
"TYTTYTTTTTYTTYTTTTT..TTTTTTTTTT..TTTTTTTYTTTTTTTTY"
};
