/* XPM */
static char *a3a0da9a529c426dcaef5b3b5d29c142djg3MG0PJJCfCFGF[] = {
/* columns rows colors chars-per-pixel */
"50 75 54 1 ",
"  c None",
". c black",
"X c #010000",
"o c #000100",
"O c #010100",
"+ c #000001",
"@ c #010001",
"# c #000101",
"$ c #010101",
"% c #3C4040",
"& c #3D4040",
"* c #3C4140",
"= c #3D4140",
"- c #3D4141",
"; c #FE5622",
": c #FF5622",
"> c #FE5722",
", c #FF5722",
"< c #FE5623",
"1 c #FF5623",
"2 c #FE5723",
"3 c #FF5723",
"4 c #F44236",
"5 c #F54236",
"6 c #F44336",
"7 c #F54336",
"8 c #F44237",
"9 c #F54237",
"0 c #F44337",
"q c #F54337",
"w c gray62",
"e c #9F9E9E",
"r c #9E9F9E",
"t c #9F9F9E",
"y c #9E9E9F",
"u c #9F9E9F",
"i c #9E9F9F",
"p c #9F9F9F",
"a c #D0BFD0",
"s c #D1BFD0",
"d c #D0BED1",
"f c #D0BFD1",
"g c #D1C8D0",
"h c #D1C9D0",
"j c #D0C8D1",
"k c #D0C9D1",
"l c #FEFEFE",
"z c #FFFEFE",
"x c #FEFFFE",
"c c #FFFFFE",
"v c #FEFEFF",
"b c #FFFEFF",
"n c #FEFFFF",
"m c white",
/* pixels */
"bbbbxblbwbbbbbwxbbbbbbbbrbbbbbrbbbbbbbbbbbrbbbbbb ",
"bbrbxbxbbxbbbbbbbbbbbxbbbbbbbbbbbbbbbbxxbbbbxbbbxb",
"xbbbxxbxx...$................$...........bbbxxxxbb",
"xbbbbxxb....$...............$.............bbxxbbrb",
"xxbbxbxx.669000,<<><1>>>,>1>1>>>>>>600006.bbxbxxbb",
"xbbxbxbx.666006>><<;11>>3311,1>>><>600006.bbbbbbbb",
"xwxbrxxb.699666>>>>>>>>>31>>,>>><>>6770q6.brbbbxbb",
"bbbxbbxb.999966>bbb>bbbb3bbbb>bbbl>667076.bxxxxbrx",
"bxxbbxbx.9969q6>19b>>>>b>>>>b11>>b>699699.bbbbbbbb",
"bbbxxbbx.6969q6>6>b>bbbb>bbbb>>>>b>669699.bbxbxbxb",
"xxrbxxwb$6999969>>b>>1<b11>1b>1>1l>669956.bbbxrbbx",
"xbbbxbxb.996096>>>b>>>>b111>b>1>1l<696690.bbbbbxbb",
"xbxbbxxb.99666611>b>bbbb>bbbb>>>1b>665990.bbbbbxbb",
"bxbrbbrb.996699>1>>>>>>1112,1>>1>>>596790.brbbxbrb",
"xbbbbbbb.969699>>>1>>>>>>>2>111>>><696960.bbxxxxbb",
"xxxxbbbb.0996661>1>11>dddf1>1>11<>>566960.bbxxxbbb",
"xbxxxbxb.qq677611>><<<>>>>>>>1>>1>,066976.bbbbrbbx",
"rxxxrbbb.000766>1>>1><dddd>11>>11>,069666.bbbbbbbb",
"bbbxbxrx.0607991><>1<>>>1>>>1>>1323996666.xrbxbbxb",
"xrbbxxxx.999766>1<11>>>>11>>1>1>121699666.bxxbbbrb",
"bbbbbbbb..................$...............bbbbbbbb",
"........pppypyyypprrppppppppprrriyiirppppr........",
"bbbbbbbbrrypppyrprerpppp..rppprrrpyirrprrrbbbxbxbb",
"bbxbbbbbbyyypprypppprprrpppprrrrripippprrbbbbxbbbb",
"bbxxxxxbbbxxxxbx bbbbb%*****bbbxbbbbbbxbxxbbxbxxbb",
"bbbbxbxxxbbxxbxbbbbbbbjjhhgjbbxxbbbbbbxlbbxbxxxxxb",
"xxxbbxbbxbxbbxbxbbbbbbyerrrr bbbbbb.rr.rrbbbxbxbbb",
"bbbxbxxxxxbxxbbbbrrryerryyrrrrrrbbb..rrrwexxbbbbxb",
"xxxbbbbxxbbbxbbxxxbbxxxlbbxxbbxbxxbb..ryeyybxxbbbb",
"bxxxxbbxxxxbxbxbbxbxbxxbbbbbxxxbxbbbb.yrrrbbxxlxbx",
"bxxxxbbbxbbbbxbbbxxbxbxxbbxxxbxxbxbbbbbbbxxbxxxbbb",
"bxbxbbxbbbxxbbbxxbbxbxxbbbxxxxbxxbbbbbbbxbxbvxlbbb",
"bbllxxbbbbbbbbbbbbbbbbbbbbbbbbbbbbbbbbbblbbbbbbllx",
"bbllxbxbryrrrrrrryrrrrrprprrrppprrrrrrrrllbbbbbxbb",
"bbllxbxbrprrrrrr......$........$....rrprrlbbbbbblb",
"bbxbxxxxbpyrrrrr.......$............rrpprrbbbbbblb",
"bxbxbblxbbrrpp........$.......$.......prrrrlbxxxbb",
"xbbxlbxxbbbrrr..............$..$......rprrrrbxbbbb",
"xbxxxbxxbbbbrr........................pprrrrwxbxbb",
"bbbbxxxbbbbbbb.................$......bbbbbbxbxbxb",
"bxbbbbbbbbbbbb.....$..$...$...........bbbbbbbbbbbb",
"bbbbbbxlbbbbbb......$..$.....$........bbbbxbbbbbxx",
"................$.$..$..........$.................",
"bbbbbbbbbbbbbb...............$........bbbbbbbbbbbb",
"brxbbrb......b...$..$.........$..$..$.b......bbrbb",
"xbxbbbb......b..............$..$.....$b......bbbbb",
"bxbbbbb......b.$...$.........$..$..$..b......bbbbb",
"bbbrbbb......b......$..$$.....$..$..$.b......bbbbb",
"bbbxbbb...$..b..$.....$..$..$..$......b......bbxx ",
"bxbbbb ......b......$.....$........... ......bbbxb",
"bbxbbbb...... ....$..............$....b......bxbbb",
"xbbbbbb...$..b..$..............$......b......bbbbb",
"bxbbxbbbb..bb ...$.....$........$..$..bbb..bbxbbbb",
"brbbbxbbb..bbb....$........$..$....... bb..bbbxbbb",
"xbbbbbbbbb..bb..$........$............bb..bbbbbbbb",
"bbbbbbbxbb..bbb.....$..$..$..$..$..$.bbb..bbbxbrbb",
"bbxbbrbbbbb......................$.......bbbbbxbbb",
"bbbbbbxb bb..............$.$.............xbbbbbbbb",
"bbbbbbbbbbbbbbbbbb...........$....bbbbbbbbxbbbbbbb",
"bbbbbxbbbbbbbbbbbb........$......$bbbbrbxbbbbbbrbb",
"xbbxbbbbbbbbbbbbbb.....$..$.......bbbbbbbbbbbxbxbb",
"bbbbxbbxbbrbrbbbbb...$..$.........bbbbbbxbbbbbbbxb",
"brbbbxbbbbbxbbbbbb.......$........bbbbbrbxbbxbxbbb",
"xbbxbbxbbxbbbbbbbbb.$............bbbbbbbbbxbbxbbbb",
"bxbbxrbbbxbbxbbxbbbbbbb......bbbbbbbbbbbbbbbbbbrbb",
"bbbbbbbbbbbbbbbbxbbxbbb......bbbbbbbbbbbbxbbbbbxbb",
"xbbxbbxbbbrbbbxbbrbbbbb......bbbrbbbrbbbbbrbbxbbxb",
"bbrbxbbbbrxbbbbxbbbbbbbb....bbbbbbbbbbbbxbbxbbxbbx",
"bbbbbxbbbbxbbbbbbxbbbbbbb..bbbbbbbbbbbbbbxbbrbbxrb",
"bbbxbbxbxbbbbbbbbbbbbb bb..bbbbbbbbbbbbxbbxbbxbbbb",
"bbbbxbbbbbxbbbbbxbb...............bbbxbrbbbxbbxbbb",
"brxbbxbbrbbbbbbbbb.................xbbbbbxbbxbbxbb",
"xbbbbbbbbbbbrbbxbbb...............bbbbbbbbbbbbbbrb",
"bbbbxbbbbbbbbxbbbbbbbbbbbbbbbbbbbbbbbbbbbbrbbbbbbx",
"bbbbbbbbbbbbbbxbbbbbbbbbbbbbbbbbxbbbbbbbbbbbbbbbbb"
};
