/* XPM */
static char *_4daeb9efe184f21f883e9ed94c01332FG9rPpY9lPY7mar0[] = {
/* columns rows colors chars-per-pixel */
"50 75 6 1 ",
"  c black",
". c gray62",
"X c #FFFFFE",
"o c #FFFEFF",
"O c #FEFFFF",
"+ c white",
/* pixels */
"++++++++++o+O+XO+++++++++++O++++++++++X+oX+o+O++++",
"++++++++oX++++oX+++++++++O+++++++++++++X+oX+o+++XO",
"++++X++X+++O+XO+++++++++++O++++++++++X++++o++oXO+X",
"+++.++++X+oX+o+++++++++++++O+++++++.++X+++.+XO+X+o",
"+++++++++X++XO.+++++++++X+++Oo++++++X+++OoXO+X++XO",
"+++++++X++X+o+.++++++++++++o+O+++     ++XO++++X.o+",
"++++++++X++X++++++++++++O+++o+O  +++++ +++++X+++Oo",
"++++++X+o+Oo+++++++++   +++++o +++++++ ++++++X++XO",
"++O++++++oX+o++++      +   ++ +++++++++ ++++++X+o+",
"++++++++++oX+oX++ ++ ++   +  +++++.++++ +++++++XO+",
"+.+++++++++o++++ +++++++++  + ++++++++++ +++++++XO",
"o++++++++oXO+++ ++++++++++++    ++++++++ +++++++++",
"+o++++++++++++ ++++++++++++++ ++ ++++++. ++++++++o",
"++o++++++++++ ++++  ++++   +++ ++ ++++++ +++++++X+",
"o++o++++++++ ++.+    +++   +++ ++ ++++++ ++++++++X",
"O++O++++++++ ++++    +++    +++ ++ ++++++ ++++.+++",
"+O+++o++++++ ++++    +++    +++ +++  ++    ++++oXO",
"o+++++o+++++ +++++   +++  ++++++ +++   +++ XO+X+oX",
"OoXOoXO+++++ +++++++++++++++++++ +++.++++++++OoXOo",
"XOoX++XO+++ ++++++++++++++ +++++ +++++++++XOo+OoXO",
"++O.+O+++++ ++++++ +++++++ +++++ ++++++++++++oX+++",
"++XO++Oo+++ ++++++ ++      +++++ +++++++++++X++X++",
"+++XOoXO++++ +++++        ++++++ ++++++++++++X++X+",
"o+Oo+++X++++ +++++++++++++++++++ +++++++++++++XO+X",
"O++O+XOoXO+X+ +++++++++++++++++ ++++++++++O+XO+XOo",
"X+oX+++Oo++++ +++.+++++++++++++ ++++++++Oo+O++++X+",
"oX+oX++++oXO++  ++++++++++++++ +++++++++++oXO+XOoX",
"+++O+++oXOo+++++  ++++++++++++ ++++++++++++oXOo+.o",
"XOo+Oo+++++++O++++   +++++++  ++++O+++++.oX++X+oXO",
"oX+o+O++Oo++oX+o+++++       ++++O++O++++XO+++++O++",
"+oXOo++oXOo+O+X.+++++ +++++++ +++O+++++Oo+++++oX+o",
"++o+O++Oo++++++++++++ +++++++     ++++++O++O+++++O",
"o.OoX+oX+++++++++++++ +++++++  +++ ++++++OoXO++O++",
"O+XO+X+o+++++++++++++ ++++++ ++ +++++++++++o+Oo+++",
"++o++o+O+++++++++++++ ++++++ +++ +++++++++++o++++O",
"++Oo+OoX+++++++++++++ ++++++ +++  .++++++O+++.+O++",
"Oo++oXOo+.+++++++++++ +++++++ +++ +++++++++++++++o",
"+++X+oX+++++++++++++ +++.++++++++XO+++++++++++++XO",
"o+OoX++XO+++++++++++ +++++++++++++++++++++++++++oX",
"O+XOoX+oX+++++++++++ ++++++++++++++++++++++++++++o",
"+O+X++X+++++++++++++ ++++++++++++++++++++++++++.+O",
"++OoX++X+++++++++.++ +++       +++++++++++++++++o+",
"++X++++o+++++++          +++++++++++++++++++++++++",
"++o++++           ++ +++++++++++++++++++++++++++X+",
"oX.+++++O+++++++++++ ++++++++++++++.++++++++++++o+",
"+oX+++++++++++++++++ ++++++++++  +++++++++++++++O+",
"+++X++++++++++++++++ ++++++++++  ++++++++   ++++++",
"oX+++++++++.++++++++ .+++++++++  ++ ++++. ++ +++oX",
"+++.++OoXOo+O+XO++++ ++++++++++  ++ +++++ ++++.++o",
"+++X+++O+XO+X++X++++ +++++++++  +  + +++ +++++++X+",
"oX+oX+oXO+X++XO+++++ +++++++++  +  + +++ +++++++++",
"+++++XOo+++++oX+++++ +++++++++  ++ + +++ ++++++++o",
"X++++o++o+Oo+O++++++ +++++++++  ++++ +++    ++++X+",
"o++o++++O+++o.O+++++ ++++++++++ ++++ +++ +++++++++",
"+o++o++++O++O++O++++ ++++++++++ ++++ +.+ ++++++++o",
"+.o++o+OoX+++OoX++++ ++++++++++ ++++ +++ ++ ++++XO",
"o+OoX+++++XO++O+++.+ ++++++++.+ ++++  ++ ++ +++++X",
"O++O+X+.X+o+O+++++++ +++++++++++++++ +++   ++++++o",
"+O++O++Oo+Oo++++++++ ++++++++++++++++++++++++.+++O",
"oX.o+OoXO+XO++Oo+++   ++++++++++++++++++X++X++++oX",
"+o++oX++XO++Oo+O++   +  ++++++++++++++++o++o+O++++",
"++oX+oX+++O+X+++++ +++++  ++++++++.+++++O+++oX++X+",
"o+O+X+++OoXOoX+++ ++++++++ + +++O+++++++XO+X+++O++",
"+o+Oo+++XO++O+++ ++++++++++  ++++++++++++++oXO+.O+",
"++oXO+.+++O+XO.  ++++++++++  +++++O++O+X++X++++o+O",
"++Oo++o++o++o+  ++++++++++O++++++o+Oo++oX.o+O+X+++",
"++XOo++o+++++  +++++++++++X++++++O.+++XO+XOoXO+X++",
"+++X+++O+X+o  ++++++++++X++++++++XOo+O+X+o++oX++++",
"o++oX+++Oo++oX+o+++++++.++++++++OoX++X+o+O++++XOoX",
"Oo.+o++oXOoX++X+++++++++++++++++XO+++++OoX++XO++Oo",
"XOoXO+XO++++.++X+++++++++++++++++X+oXOo++++++++oXO",
"+XOo+++XO++O++++++++++++++++.+++OoX++++++OoX++X+oX",
"O+++o+O+XOoX++XOoX+o+Oo++++O+++++OoXOoX.+++oXO+X++",
"+O+++++OoXO+XOo+OoX+++OoX+++OoXO+XOoX+oX++++++O+X.",
"+XO.XO+XO+++oXOoXOoX.++O+XOo+O+++o++++O+++++O++Oo+"
};
